<svg xmlns="http://www.w3.org/2000/svg" viewBox="0 0 739 720"><defs><style>.cls-1{fill:#fefefe;}.cls-2{fill:#2f2d2d;}.cls-3{fill:#d90707;}.cls-4{fill:#656161;}.cls-5{fill:#434343;}.cls-6{fill:#d85555;}.cls-7{fill:#7a7878;}.cls-8{fill:#951f1f;}.cls-9{fill:#cd2121;}.cls-10{fill:#3c3c3c;}.cls-11{fill:#585555;}.cls-12{fill:#0e0e0a;}</style></defs><title>joystick_icon</title><g id="Layer_2" data-name="Layer 2"><g id="Tracings"><path class="cls-1" d="M1,201V1H440V2c-1.48-.18-2.79.8-4.08.89-6.82.5-12.94,3.22-19.05,5.82-9.52,4.05-18.22,9.44-25.28,17.19-.67.74-1.38,1.44-2.11,2.12-6.4,6-11.73,14-15.89,23.82-1,2.28-1.84,4.56-2.59,6.9s-1.45,4.75-2.17,7.09c-.8,2.59.06,5.44-1,7.52C366.47,76,367.49,78.5,367,81q0,5,0,9.91A57.47,57.47,0,0,0,369,99c-.17,1.48.66,2.74.9,4.08A50,50,0,0,0,374,114.86a78.64,78.64,0,0,0,18.2,25.78c1.64,1.51,3.59,2.7,5.18,4.26,4.56,4.46,10.08,7.35,15.7,10.15,1.45.72,3.47.87,4,3-.33,3.68-.8,7.36-1,11s0,7.3,0,11v4c-2.83-.33-6.07.07-8.37-1.21s-4.52.1-6.48-1.14c-2.27-1.44-4.78-.31-7.15-.65a5.59,5.59,0,0,0-4.06-1c-8,.31-16-.79-23.94,1l-5.51,1c-2,.37-4.28-1-6,1-2.63-.68-4.91,1.26-7.49,1-.76.15-1.91-.5-2,1a51.65,51.65,0,0,0-13.46,4.24c-2.9,1.25-6.26,2.19-8.54,4.76l-1,1c-.76.15-1.91-.5-2,1-3.34,0-3.59.23-4,3-1.26.06-2.63-.38-3.56,1a5.84,5.84,0,0,1-1.75,1.75c-6.22,3.76-10.09,9.55-13.58,15.65-.83,1.45-1.42,3.05-2.11,4.58-.47,3.37-2.27,6.48-2,10-1.39.28-2.72-.08-4.23.57-3.78,1.62-7.73,2.94-11.61,4.27-9,3.09-18,5.94-26.59,10.08-2.82-.39-4.64,2.89-7.57,2.07l-16.33-17.06h-6.43L214,228c-3.62-3.12-7.9-5-12.17-7.1-5.53-2.68-11.16-4.27-17.28-3.87a50.16,50.16,0,0,0-5.55,1c-.76.15-1.91-.5-2,1h-1c-4.69.47-9.05,2.31-13.63,3.32-7.09,1.57-14.08,3.54-21.4,3.67-4,.07-8,0-12,0h-3c-.39-.33-.75-.88-1.18-1a17.82,17.82,0,0,0-2.82,0,16.68,16.68,0,0,1-2.81-.34A62.34,62.34,0,0,0,108,222a15,15,0,0,0-5-2c-3.69-1.32-7.68-1.68-11.21-3.62-1.42-.78-3.19-.94-4.79-1.38-.23-1.92-1.83-.67-2.72-1.16-4.31-2.4-9.17-3.47-13.66-5.49A80.48,80.48,0,0,0,63,205c-7.89-2.61-15.34-6.26-22.94-9.54-6.62-2.86-13-6.33-19.48-9.49-3.67-1.78-5.84-1.09-7.52,2.42a9.24,9.24,0,0,0-1.15,5,55,55,0,0,1,0,5.89L10,201H5c-.23-.33-.53-1-.68-.95C3.2,200.29,2.1,200.67,1,201Z" transform="translate(-1 -1)"/><path class="cls-1" d="M389,721H1Q1,463.5,1,206a14.07,14.07,0,0,0,1.87,1.33A13.18,13.18,0,0,0,5,208c2.82,3.43,7,5,10.74,6.79,5.06,2.39,10.29,4.55,15.43,6.86A8.05,8.05,0,0,0,33,222c.69.33,1.37.72,2.09,1,3.6,1.35,7.25,2.59,10.81,4.05a8,8,0,0,0,4.1,1c.26.33.45.85.78,1,1.85.69,3.73,1.3,5.61,1.92L72,236c5.43,1.8,10.75,3.85,16.36,5.21a74.54,74.54,0,0,1,10,3.49c3.29,1.33,7,1.46,10.4,2.64,5.69,2,11.61,2.72,17.48,3.53,4.41.61,9,.15,13.47.08.44,0,.86-.62,1.29-1a49.33,49.33,0,0,0,5,0c1.7-.17,3.36-.63,5-1,1.67-.51,3.33-1,5-1.55,0,0,0-.3,0-.45,5.08.1,9.36-2.58,14-4l12-4a31.83,31.83,0,0,0,4.42,0c3.47-.49,6.47.73,9.37,2.35,1.63.91,3.18,2,5.2,1.69l-1.2,5.3c1.7,1.7,3.23,3.19,4.71,4.72q5.76,6,11.48,12c-2.91,2.09-6.4,3.19-9.3,5.13-3.53,2.35-7.37,3.92-11,5.92s-7.15,4.24-10.94,6.05c-3.39,1.62-7.08,3-9.73,5.9h-6c-1.19-1-2.61-1-4.07-1-7.64,0-15.29,0-22.93,0-3.14-.75-6,1-9,1a13.64,13.64,0,0,0-5.1.92c-1.72.63-3.91-.56-5.53,1.09-3.37-.11-6.34,1.79-9.63,2s-6.16,2.09-9.15,3.2a75.08,75.08,0,0,0-26.21,16c-2.58,2.47-4.91,5.2-7.35,7.81a7.91,7.91,0,0,0-2.18.73c-3.53,2.51-5.07,6.45-6.76,10.16a62.48,62.48,0,0,0-4.84,19.38,135.27,135.27,0,0,0-1.15,14.53c0,3.69.61,7.37.93,11.06.34,3.85.63,7.71,1,11.56.06.56.63,1.06,1,1.59a5.47,5.47,0,0,0,0,2,29.62,29.62,0,0,1,2,12.68c-.13,5,0,10-.06,15a10.38,10.38,0,0,1-.61,3.73,9.52,9.52,0,0,0,0,6.22,13,13,0,0,1,.65,3.72c.27,3.37.15,6.69.83,10.11,1.25,6.29,3.45,11.79,8.24,16.11,2.28,2.06,4.61,4.08,7,6,4.49,3.58,9.16,7,13.55,10.65,4.2,3.53,8.32,7.15,12.57,10.63,4.51,3.67,9,7.45,13.28,11.32,5.69,5.11,11.41,10.18,17.23,15.14,4.62,3.93,8.94,8.2,13.4,12.33a7.34,7.34,0,0,0,1.07,1c5.23,3.09,8.68,8.24,13.6,11.73,3,2.15,5.4,5.13,8.36,7.48,4.47,3.55,8.31,7.87,12.7,11.6,5.76,4.89,11.09,10.29,16.6,15.47.24.23.43.59.71.69,2.95,1,4.41,3.8,6.64,5.68s4.74,3.93,7,6c5.55,5.14,11,10.35,16.56,15.53a2.13,2.13,0,0,0,.36.35c5.19,2.89,8.49,7.93,13.21,11.44,5.11,3.8,9.48,8.59,14.16,12.95.37.34.65.89,1.07,1,2.49.8,3.73,3.07,5.58,4.62s4,3.24,5.93,5c4,3.61,7.78,7.55,12,10.84,2.6,2,4.76,4.45,7.32,6.4a107.6,107.6,0,0,1,11.85,9.94,8.18,8.18,0,0,0,1.42,1.39c5.12,3.06,9.16,7.48,13.92,11,2.47,1.83,4.49,4.3,7.07,5.91,5.42,3.38,9.93,7.9,15.23,11.41,4.22,2.79,8.1,6.1,12.33,8.88,5.6,3.67,11.35,7.11,17,10.63,6.67,4.11,13.81,6.86,21.1,9.42Z" transform="translate(-1 -1)"/><path class="cls-1" d="M462,1H740V469h-1c0-2.66.14-5.32,0-8-.16-2.4.34-4.75-.48-7.25s-.37-5.17-.48-7.79c-.33-1.7-1.07-3.42-.92-5.08.37-4.29-1-8.19-2.1-12.17-.2-.73-.89-1.38-.94-2.09-.28-4.21-3.53-6.88-5.25-10.34a2,2,0,0,0-1-1c-2.13-.45-3.07-2.33-4.52-3.58-2.83-2.45-5.41-5.25-8.48-7.34-4.36-3-8.21-6.56-12.45-9.68s-8.06-7-12.33-10.14c-6.17-4.57-12.37-9.08-18.13-14.16-.41-.36-1.21-.27-1.83-.38a31,31,0,0,0-3-3c-3.14-2.41-6.4-4.65-9.54-7.06-4.68-3.6-9.06-7.66-14-10.84-7.75-5-14.84-10.8-22.17-16.33-2-1.54-4-3.23-6-4.79-5.18-4-10.55-7.67-15.53-11.85-3.69-3.1-7.56-6-11.36-8.93-5-3.82-9.92-7.88-15.11-11.53-4.07-2.86-7.54-6.57-11.63-9.38-3.8-2.6-7.25-5.62-11-8.28-5.47-3.9-10.47-8.46-15.82-12.55-1-.76-2.25-1.85-3.86-1.48.22-2.21-1.45-3-2.92-4-2.38-1.63-4.72-3.32-7.08-5a6.87,6.87,0,0,0-1.07-1.54c-3.46-2.84-7.43-5-10.42-8.46-3.15-.5-4.06-3.87-6.81-5.16s-4.73-3.8-7.09-5.74c-3.81-3.13-7.64-6.23-11.73-9.57-.93,1.2-2,1.71-1.92,3.38.15,4.47-.26,9,.21,13.42A34.94,34.94,0,0,1,482,246v45c-.33.85-.72,1.67-1,2.54-1,3.23-2,6.43-5,8.46-1.33-1.5-1-3.33-1-5.08q0-54.71,0-109.42c1.41-1.41,2.63-3.16,4.29-4.15a5,5,0,0,0,2.71-4.85c0-3.5,0-7,0-10.49v-8c.53-.33,1-.92,1.59-1,3.26-.25,5.72-2.34,8.49-3.66,2.93-1.4,5.8-2.94,8.6-4.58A74.65,74.65,0,0,0,517.48,137a73.42,73.42,0,0,0,12-17,142.89,142.89,0,0,0,5.88-13.57c1.82-4.76,2-9.76,3.57-14.5.86-2.58-.26-20.38-.92-24.05-1.58-.82-.11-3.21-2-3.88,0-1.16.4-2.52-.07-3.45-2.19-4.42-3-9.42-5.56-13.64a141.8,141.8,0,0,0-7.95-12.2,95.91,95.91,0,0,0-14.71-15.18,64.46,64.46,0,0,0-18.81-11c-2.56-1-4.85-3.07-7.91-2.57-1.89-2.3-5-1.39-7.29-2.67-1-.55-2.46-.25-3.71-.33h-3c-.4-.33-.77-.91-1.2-1A37.31,37.31,0,0,0,462,2Z" transform="translate(-1 -1)"/><path class="cls-2" d="M389,720c-7.29-2.56-14.44-5.3-21.1-9.42-5.7-3.51-11.45-7-17-10.63-4.23-2.77-8.11-6.08-12.33-8.88-5.31-3.51-9.82-8-15.23-11.41-2.58-1.61-4.6-4.08-7.07-5.91-4.76-3.52-8.8-7.94-13.92-11a8.18,8.18,0,0,1-1.42-1.39A107.6,107.6,0,0,0,289,651.43c-2.57-1.95-4.73-4.39-7.32-6.4-4.26-3.29-8-7.23-12-10.84-1.92-1.72-4-3.3-5.93-5s-3.09-3.82-5.58-4.62c-.42-.14-.71-.69-1.07-1-4.69-4.36-9.06-9.15-14.16-12.95-4.72-3.51-8-8.55-13.21-11.44a2.13,2.13,0,0,1-.36-.35c-5.51-5.18-11-10.39-16.56-15.53-2.26-2.09-4.64-4-7-6s-3.69-4.63-6.64-5.68c-.28-.1-.47-.46-.71-.69-5.51-5.18-10.84-10.58-16.6-15.47-4.39-3.73-8.23-8.05-12.7-11.6-3-2.36-5.33-5.33-8.36-7.48-4.92-3.49-8.37-8.64-13.6-11.73a7.34,7.34,0,0,1-1.07-1c-4.45-4.12-8.78-8.4-13.4-12.33-5.83-5-11.54-10-17.23-15.14-4.32-3.88-8.78-7.65-13.28-11.32-4.26-3.47-8.37-7.09-12.57-10.63-4.39-3.7-9.06-7.06-13.55-10.65-2.4-1.92-4.73-3.94-7-6-4.79-4.32-7-9.82-8.24-16.11-.68-3.43-.56-6.75-.83-10.11a13,13,0,0,0-.65-3.72,9.52,9.52,0,0,1,0-6.22,10.38,10.38,0,0,0,.61-3.73c.06-5-.08-10,.06-15A29.62,29.62,0,0,0,58,390a5.47,5.47,0,0,1,0-2h2.27c-1.08-7.35.69-14.13,1.07-22.15,2,1.94,3.44,3,4.42,4.49,2.21,3.21,4.16,6.6,6.24,9.9,2.95,4.66,9.2,11.92,12.5,13.69,7.19,3.86,14.85,6.57,23.06,7s16.36-.75,24.43,1.51c0,.32.13.85,0,.95-5.64,3.66-10.23,8.49-15.06,13.08A97.21,97.21,0,0,1,105.37,426c-4.4,3-9.19,5.54-14.91,5-1.44-.13-2.91,0-4.83,0,.47,1,.57,1.84,1,2,2.54,1.28,4.08,3.76,6.32,5.28,5.2,3.52,9.56,8,14.55,11.82a130.08,130.08,0,0,1,11.5,9.57c4.72,4.51,10.21,8,14.86,12.59a54.82,54.82,0,0,0,7.37,6.33c5.75,3.9,10.48,9,16,13.17,2.72,2,5.07,4.57,7.76,6.65,5.47,4.23,10.91,8.49,16.06,13.1,2.29,2.05,4.61,4.08,7,6,4.49,3.59,9.13,7,13.57,10.64,4.76,3.9,9.36,8,14,12a62,62,0,0,0,5.61,4.57c4.94,3.3,9.16,7.49,13.91,11,2.73,2,5.09,4.54,7.76,6.66,5.75,4.55,11.66,8.9,17.39,13.48,4.42,3.53,8.65,7.29,13,10.93,2.09,1.75,4.2,3.49,6.36,5.15,3.78,2.91,7.66,5.7,11.4,8.66s7.23,6.49,11.26,9.08c5.23,3.36,9.89,7.45,14.81,11.17q10.28,7.77,20.7,15.36c4.29,3.11,8.55,6.36,13.35,8.75,7.88,3.93,15.44,8.47,23.4,12.29a56.29,56.29,0,0,0,19.16,5.48A73.11,73.11,0,0,0,419,661.16a158.16,158.16,0,0,0,20.17-6.87c2.85-1.16,5.47-2.88,8.27-4.17s6.12-1.84,8.41-3.7c2.58-2.1,5.65-2.61,8.4-4,14.14-7.27,28.38-14.33,42.63-21.38,7.6-3.76,15.3-7.32,22.92-11,2.5-1.22,4.87-2.72,7.36-4q46.37-23.22,92.76-46.39c9.25-4.62,18.65-9,27.75-13.86,9.26-5,18.89-9.23,28-14.62C693,526.76,701.1,523.58,709,520c6.89-3.12,13.28-6.85,18.24-12.71a30.22,30.22,0,0,0,5.62-9.16c1.32-3.76,4-7.3,3.21-11.68,2.06-3.48,2-7.32,2-11.18,0-.43.62-.86,1-1.29v15c0,3.58,0,7.17,0,10.75,0,.42.62.83,1,1.25v15c-.33.41-.95.82-1,1.25-.08,3.25,0,6.5,0,9.75v5c.05,1.77-.82,3.53-.84,5.09-.08,6-2.25,11.35-4.11,16.86-1.39,4.12-3,8-6.39,10.85a118.14,118.14,0,0,1-15.23,10.29c-4.67,2.79-9.42,5.45-14.05,8.26-6.39,3.87-13.07,7.21-19.42,11.14-3.82,2.36-7.95,4.17-11.86,6.4-6.85,3.88-14,7.17-20.92,11-8.34,4.68-17,8.7-25.6,13s-17.25,9-26.12,13-17,8.61-25.91,12.29c-7.66,3.17-14.82,7.58-22.51,10.84-5.1,2.16-9.92,5-15.09,7-4.85,2-9.47,4.5-14.23,6.67-6.59,3-13.25,5.84-19.82,8.87-5.18,2.39-10.49,4.47-15.68,6.8-5.9,2.65-11.76,5.39-17.81,7.71-2.87,1.1-5.51,2.85-8.41,3.83-7.31,2.46-14.26,5.83-21.6,8.21-3.51,1.14-6.92,2.59-10.39,3.87a144.92,144.92,0,0,1-16.4,5.13A18.64,18.64,0,0,1,403,720a17.82,17.82,0,0,0-2.82,0c-.43.07-.79.62-1.18,1h-5c-.4-.33-.77-.91-1.2-1A37.31,37.31,0,0,0,389,720Z" transform="translate(-1 -1)"/><path class="cls-1" d="M403,720a18.64,18.64,0,0,0,3.62-.84A144.92,144.92,0,0,0,423,714c3.47-1.28,6.89-2.73,10.39-3.87,7.34-2.38,14.29-5.76,21.6-8.21,2.9-1,5.54-2.73,8.41-3.83,6.05-2.32,11.91-5.05,17.81-7.71,5.19-2.33,10.5-4.41,15.68-6.8,6.57-3,13.23-5.87,19.82-8.87,4.77-2.18,9.38-4.72,14.23-6.67,5.17-2.08,10-4.87,15.09-7,7.69-3.26,14.85-7.67,22.51-10.84,8.86-3.67,17.18-8.37,25.91-12.29s17.43-8.63,26.12-13,17.26-8.32,25.6-13c6.89-3.87,14.07-7.15,20.92-11,3.92-2.22,8-4,11.86-6.4,6.35-3.92,13-7.26,19.42-11.14,4.63-2.81,9.39-5.47,14.05-8.26a118.14,118.14,0,0,0,15.23-10.29c3.4-2.83,5-6.73,6.39-10.85,1.86-5.51,4-10.86,4.11-16.86,0-1.56.89-3.32.84-5.09h1V721H403Z" transform="translate(-1 -1)"/><path class="cls-3" d="M462,2a37.31,37.31,0,0,1,3.8,0c.43,0,.8.62,1.2,1-.34,1.8.42,3,1.73,4.29C473,11.4,476.11,16.37,479,21.5a46.36,46.36,0,0,1,3,6.73c.84,2.32.86,5.09,2.16,7.06,1.66,2.52-.09,5.23,1.21,7.51,1.44,2.52.51,5.16.59,7.72.09,2.86.78,5.87-.93,8.56.08,6.3-2.4,11.86-5,17.4-4,8.67-8.27,14-15.41,20.5a62.73,62.73,0,0,1-13.71,9.09,51.75,51.75,0,0,1-23,5.93c-.82,0-1.93-.29-2.41.13-1.06.92-1.73,1.2-2.88.11-.46-.43-1.56-.2-2.36-.23a83.26,83.26,0,0,1-8.6-.81c-5.36-.82-10.07-3-14.94-5-5.61-2.27-10.25-6.1-14.83-9.9a45.87,45.87,0,0,1-10.83-13.45C370,81,368.65,81,367,81c.49-2.5-.53-5,.82-7.65,1.06-2.09.21-4.93,1-7.52.72-2.34,1.42-4.73,2.17-7.09s1.63-4.63,2.59-6.9C377.75,42,383.08,34,389.48,28c.73-.68,1.44-1.38,2.11-2.12,7.05-7.75,15.76-13.13,25.28-17.19C423,6.11,429.1,3.4,435.92,2.89c1.29-.1,2.6-1.07,4.08-.89,2.59,0,5.18,0,7.76,0,.42,0,.82-.62,1.24-1h8c.4.33.77.91,1.2,1A37.31,37.31,0,0,0,462,2ZM425.12,22c-7.46,0-7.47,0-11.82,2.21-.83.42-1.57,1-2.42,1.39-5.36,2.33-8.61,6.75-11.5,11.53A7.91,7.91,0,0,0,398,39.56c-1.17,7-2.18,13.94.76,20.78.48,1.13.45,2.29,1.33,3.47a45.94,45.94,0,0,0,8.11,9,27.65,27.65,0,0,0,10.9,4.93,23.25,23.25,0,0,0,13-.76c8.94-3.2,14.16-7.42,18.15-15.77,1.17-2.46,1.17-5.27,2-7.67.75-2.18.4-4.11.65-6.14-2.13-1.6-.49-4.16-1.75-6.29-1.72-2.91-3.1-6-5-8.91-2.63-4-6.53-6.07-10.29-8C432.51,22.42,428.49,21.14,425.12,22Z" transform="translate(-1 -1)"/><path class="cls-4" d="M182,239l-12,4c.08-2-.78-3.23-2.86-3a7.34,7.34,0,0,1-4.52-1.16,7,7,0,0,0-3.14-.91c-1.72-.11-3.4.32-5.16-.84-1.29-.84-3.29,0-5.06-1a12.22,12.22,0,0,0-6-1,7.73,7.73,0,0,1-4.52-1.18,4.51,4.51,0,0,0-3.63-.85c-2.24.52-4-1.17-6.08-1s-3.94-1-5.91-1.45a7.5,7.5,0,0,0-2.24-.56c-4.92.61-9.18-3.16-14.15-2.05-.12,0-.29-.11-.41-.2-1.7-1.28-3.69-1.48-5.71-2A32.5,32.5,0,0,0,94,225a4.13,4.13,0,0,1-1.83-.38A14.24,14.24,0,0,0,84.32,223a7.76,7.76,0,0,1-2.29-.46c-3-.82-5.93-1.84-9-2.45-1.76-.35-3.85.43-5.42-.2s-3.5-1.24-5.24-1.79-3.6.49-5.05-1.07c-4.31-.06-8.3-2.19-12.65-2-.47,0-1.11,0-1.38-.22-2.78-2.78-6.84-.92-9.85-2.76-4.28.7-7.85-2.64-12.1-2.13-1.4-1.73-3.67-.07-5-1.13s-2.48-.54-3.72-.73c-1.39-.22-2.82.41-4.21-.82-.51-.45-2.26.51-3.45.82a13.18,13.18,0,0,1-2.13-.67A14.07,14.07,0,0,1,1,206v-4a17.82,17.82,0,0,0,2.82,0c.43-.07.79-.62,1.18-1h5c.17,1.67,1.46.87,2.28,1,3.47.45,7.25.13,10.35,1.43A44.58,44.58,0,0,0,32,205.79c5.39,1,10.73,2.22,16.12,3.22,1.37.25,2.7.69,4.07,1s3-.64,4.12.86c3.49.06,6.73,1.25,10.07,2.09,1.7.43,3.6,0,5.33.38s3.15,1.23,4.77,1.64,3.55-.63,5.13,1c.32.32,1.69-.46,2.59-.65s1.7,1.7,2.74.23c.08-.11,0-.32,0-.49,1.61.44,3.37.6,4.79,1.38,3.53,1.94,7.51,2.29,11.21,3.62.11.61,0,1.61.36,1.75a19.76,19.76,0,0,0,3.9,1.2c.17,0,.5-.62.75-.95a62.34,62.34,0,0,1,11.19,2.66A16.68,16.68,0,0,0,122,225l.33,1.83c1.23-.24,2.86,1.27,3.67-.83h3v2c4.31,0,8.28.19,12.23-.07a13.54,13.54,0,0,1,7.39,1.41c2.51,1.41,5,.29,7.53,1.06,4.15,1.27,8.34,3,12.89,2.62a2.59,2.59,0,0,1,1.8.38c2,1.93,4.45,1.42,6.82,1.65a25.58,25.58,0,0,1,4.35,1.17Z" transform="translate(-1 -1)"/><path class="cls-4" d="M739,489V469h1v20Z" transform="translate(-1 -1)"/><path class="cls-5" d="M739,489h1v12c-.33-.42-.95-.83-1-1.25C739,496.17,739,492.58,739,489Z" transform="translate(-1 -1)"/><path class="cls-4" d="M739,527c0-3.25,0-6.5,0-9.75,0-.42.62-.83,1-1.25v11Z" transform="translate(-1 -1)"/><path class="cls-6" d="M449,1c-.41.33-.81.94-1.24,1-2.59.09-5.18,0-7.76,0V1Z" transform="translate(-1 -1)"/><path class="cls-7" d="M5,201c-.39.33-.75.88-1.18,1A17.82,17.82,0,0,1,1,202v-1c1.1-.33,2.2-.71,3.32-.95C4.47,200,4.77,200.67,5,201Z" transform="translate(-1 -1)"/><path class="cls-6" d="M462,2a37.31,37.31,0,0,1-3.8,0c-.43,0-.8-.62-1.2-1h5Z" transform="translate(-1 -1)"/><path class="cls-7" d="M739,527h1v5h-1Z" transform="translate(-1 -1)"/><path class="cls-7" d="M389,720a37.31,37.31,0,0,1,3.8,0c.43,0,.8.62,1.2,1h-5Z" transform="translate(-1 -1)"/><path class="cls-7" d="M403,720v1h-4c.39-.33.75-.88,1.18-1A17.82,17.82,0,0,1,403,720Z" transform="translate(-1 -1)"/><path class="cls-5" d="M482,274V248c1.49,0,3.31-.55,4.41.11,2.61,1.56,6,.77,8.28,2.89,3.13-.43,5.69,1.53,8.6,2.14a41.45,41.45,0,0,1,11.22,4.06c3.52,1.92,7.47,3,10.71,5.46a19.83,19.83,0,0,0,4.52,2.28c.25.1.83-.61,1.26-.94,1.61-.37,2.86.71,3.86,1.48,5.35,4.09,10.34,8.65,15.82,12.55,3.74,2.66,7.2,5.68,11,8.28,4.09,2.81,7.56,6.52,11.63,9.38,5.19,3.65,10.07,7.71,15.11,11.53,3.81,2.89,7.67,5.83,11.36,8.93,5,4.18,10.35,7.9,15.53,11.85,2,1.55,4,3.25,6,4.79,7.32,5.53,14.42,11.34,22.17,16.33,4.95,3.18,9.32,7.24,14,10.84,3.14,2.41,6.4,4.65,9.54,7.06a31,31,0,0,1,3,3c0,2.72,2.21,3.67,3.94,5,2,1.52,4.61,2.6,5.85,4.57s2.47,4.35,2.17,6.91c-.17,1.42.52,2.41,1,3.53-1.37,0-1,1.07-1,1.78.27,3.09-1.31,5.54-3.08,7.68-3.81,4.6-8.79,7.74-14,10.57-6.23,3.37-12.87,5.83-19.19,9-1.51.75-3,1.48-4.6,2.13-3.17,1.31-6.54,2.43-9.14,4.87a2.63,2.63,0,0,0-1,0q-9.89,4.47-19.76,9c-8.53,3.92-17,8-25.59,11.78-5.35,2.37-10.48,5.18-15.94,7.34-4.69,1.86-9.12,4.46-13.78,6.52-7.18,3.18-14.11,6.92-21.3,10.09-2.52,1.11-4.68,3.16-7.64,3.26-3.73,1.53-7,4.14-11,5-.6-2.54,2.21-2.62,3.58-4.34a16.73,16.73,0,0,0-3.12-1.61,12.2,12.2,0,0,0-3-.05H356.36c-.83,0-1.66,0-2.49,0a4.14,4.14,0,0,0-3.87,2c-4.53-2.68-8-6.74-12.29-9.68-3-2-5.17-5.1-8.71-6.32-1.06-1.23-1.9-2.81-3.22-3.61-3.47-2.1-6.13-5.14-9.35-7.53-2.6-1.93-4.91-4.23-7.4-6.31a2.45,2.45,0,0,0-4,1.56,10.1,10.1,0,0,0,0,1.5v28.91c2.79,2.61,5.4,5.25,8.41,7.56,4.27,3.28,8,7.21,12,10.85A13.53,13.53,0,0,0,327,493c.92.75,1.88,1.45,2.75,2.26a94.35,94.35,0,0,0,7.63,6.76c4.88,3.68,9.41,7.85,14,11.9,1.09,1,2.94,1.18,3.2,3.06a9.39,9.39,0,0,0,1.43,0c1.63,3.41,5.13,4.82,7.74,7.16a98.12,98.12,0,0,0,10.88,8.71A9.3,9.3,0,0,1,378,536a19.78,19.78,0,0,1-3.08,1c-1.77.26-3.48-.78-5.07-.82A141,141,0,0,1,355.3,535c-4.32-.56-8.7-.71-13-1-.17,0-.36.05-.5,0-3.87-1.73-8.11-1.37-12.16-1.84-3.82-.44-7.59-1.88-11.55-1.19-.36.06-.79-.45-1.22-.62-2.22-.9-4.87.44-6.93-1.34-2,1.62-4.36,1-6.57,1-4.53-.06-9,0-13.34,1.54V534c-.62-.12-1.4,0-1.83-.38-5.86-4.78-11.8-9.47-17.45-14.49-3.86-3.43-8-6.51-11.86-9.92-4.86-4.3-9.75-8.53-14.77-12.64-4.5-3.68-8.81-7.59-13.23-11.37-4.79-4.11-9.53-8.27-14.4-12.31-4.28-3.55-8.24-7.48-12.33-11.25-.37-.34-.65-.86-1.07-1-2.68-1.1-4.22-3.51-6.29-5.31s-4.23-3.49-6.28-5.31c-2.92-2.59-5.75-5.29-8.66-7.88-6.32-5.64-12.62-11.31-19-16.83-2.71-2.33-5.15-4.91-8-7.16-5.12-4.07-9.7-8.83-14.51-13.3-2.09-1.94-4.2-3.86-6.29-5.8,1.83,0,3.67-.13,5.48,0s3.38.86,5.08.92c4,.14,8,.15,12,0a101.06,101.06,0,0,0,12.09-.74c4.85-.74,9.77-1.27,14.59-2.27,3.33-.69,6.61-1.69,9.9-2.58a85.15,85.15,0,0,0,16.64-6.76A8.57,8.57,0,0,1,213,387a15.65,15.65,0,0,1,1.74,2.27c3.35,6.52,9,11,14.26,15.73,1.16,1.33,2.08,3.18,3.55,3.88,2.79,1.34,4.84,3.6,7.08,5.46,5.87,4.89,11.25,10.37,16.84,15.6A12,12,0,0,0,258,431c1.17,1.92,3.26,2.81,4.82,4.29,5.68,5.41,11.41,10.75,17.1,16.14a8,8,0,0,0,4.93,2.6,39.14,39.14,0,0,0,1.1-6.21c.12-8.45.05-16.91.05-25.32-2.39-2.39-4.5-5.05-7.14-7a103.79,103.79,0,0,1-12.84-11,13.55,13.55,0,0,0-5-3.5,6.4,6.4,0,0,0-1.06-1.52c-4.9-3.87-9.35-8.28-14.07-12.35-3.93-3.39-7.92-6.74-11.87-10.12-.29-1.73-2.07-1.69-3.05-2.59q-7.69-7.06-15.24-14.27c-.48-.46-.49-1.42-.71-2.14v-4a2.77,2.77,0,0,0,2.59-1c2.3-2.39,4.45-5,7.15-6.89,5.61-3.84,11.53-7.24,17.62-11-2-5.07-3.9-10.07-7.19-14.57-2.75-3.75-6.14-6.79-9.27-10.12-4.19-4.44-9.42-7.49-14.71-10.34A84.72,84.72,0,0,0,190.54,292c-4.88-1.16-9.58-3.21-14.75-3-.25,0-.53-.62-.79-1,2.64-2.94,6.33-4.28,9.73-5.9,3.79-1.81,7.29-4,10.94-6.05s7.5-3.57,11-5.92c2.9-1.94,6.4-3,9.3-5.13,3.12,0,4.6-2.81,7.74-3.76l-2.52-2.52q-7.41-7.41-14.82-14.8c-.83-.82-1.75-1.55-1.4-2.92l1-1c2.76.86,3.09,3.89,5,5.57,4.63,4.08,9.09,8.35,13.62,12.54.35.32.77.86,1.11.83.81-.07,2.1.71,2.27-.95a4.59,4.59,0,0,0,4-2c.49,0,1.25.2,1.42,0,1.47-2,3.88-2.56,5.88-3.63A7.58,7.58,0,0,0,243,249c2.94.81,4.75-2.46,7.57-2.07,8.57-4.14,17.61-7,26.59-10.08,3.88-1.34,7.83-2.65,11.61-4.27,1.51-.65,2.84-.29,4.23-.57v8a39.82,39.82,0,0,0,0,4.47,27.19,27.19,0,0,0,1,4.07,47.83,47.83,0,0,0,6,12.93c2.65,4.17,6.43,7.35,9.82,10.87,5,5.2,11.5,8.1,17,11.61,2.08-1.16,3.73-2,5.33-3,1-.59,1.91-1.32,2.87-2,3.28-1.5,6.9-2.15,10.07-4,.49-.28,1.28,0,1.93,0v2c-2.32.63-3,2.83-3.92,4.56-1.61,3.12-2.66,6.52-4.1,9.74a35,35,0,0,0-2.86,11.22,157.94,157.94,0,0,0-.08,16.41,11.44,11.44,0,0,0,1,3.07,40.87,40.87,0,0,0-1,5.58c-.15,4,0,8,0,12v23.48c0,4-.29,8,.08,12s-.92,7.7-1.18,11.58c-.37,5.45,1.57,10.69,1.06,16.08-.31,3.26,1.15,5.81,2.66,8.41A20.84,20.84,0,0,0,340,413c2.83,3.8,4.65,8.42,9,11,0,.5-.22,1.2,0,1.46,2.41,2.52,4.9,5,7.37,7.44,2.09-.28,2.83,3.73,5.74,1.52V356.69c3.44,1.49,6.47,2.84,8.86,5.31v66.78c0,4,0,8,0,12a3.22,3.22,0,0,0,1.25,3c3,2.2,6,4.5,9.78,5.27,2,2.52,5.34,2.69,8,3.8,2.45,1,5,2.63,8,2.2.26.33.47.88.8,1,2,.49,4,.78,5.94,1.3,1.78.47,3.47,1.38,5.27,1.67,2,.32,4.2-.33,6,1.06,4.73-.38,9.26,1.3,14,1.09,8-.34,15.93-.21,23.9,0,4.07.08,7.94-1.78,12-1.05a.84.84,0,0,0,.49,0c2.72-1.38,5.73-1.43,8.63-2,2-.42,4.19-.47,5.86-1.94,1.39-.3,2.76-.11,4.24-.55,4.45-1.29,8.76-3,13.08-4.59a64.86,64.86,0,0,0,14.39-7.29c5.2-3.58,10.64-6.81,15.48-11A109.33,109.33,0,0,0,540,421c2-.27,1.91-2.36,2.93-3.49a82.74,82.74,0,0,0,13.24-19.88,28.34,28.34,0,0,0,2.68-9.81c.75-8.29.17-16.62.94-25,.91-9.88.21-19.9.21-29.86,0-.83.33-2.12-.07-2.41-1.9-1.37.1-4-1.93-5.23.33-1.85.71-3.7,1-5.56a6.79,6.79,0,0,0-.21-1.77H557v-2c.88-.08,2,.43,2-1.25s-.71-1.93-2-1.75a34.38,34.38,0,0,0-1.35-11.86c-1.94-6.89-5.68-12.91-9.13-19.07-.27-.49-1-.72-1.52-1.07v-1l-1.5-2.1c-.66,1.08-.9,1.85.5,2.1l1,1a11.82,11.82,0,0,0,.39,2.84,76.91,76.91,0,0,0,3.16,7.18c2.87,5.55,3.31,11.69,4.4,17.65.77,4.22-.74,8.37-1,12.57-1.63,1.16-.56,3.07-1.23,4.48-3.14,6.57-6.65,12.92-12,18-1.14,1.08-2.66,1.77-3.78,2.87-3.89,3.81-8.55,6.54-13.25,9.08-5.41,2.93-11.17,5.19-16.71,7.87-5.12,2.47-10.62,3.42-16.11,4.6-2.56.55-5.19.33-7.56,1a16.86,16.86,0,0,1-6.62.79c-2.51-.27-4.7,1-7.09,1-7.83.06-15.65,0-23.48,0a105.36,105.36,0,0,1-22.68-1.9c-5.21-1.08-10.29-2.65-15.5-3.62-3.69-.69-7.16-2.33-11-2.5l-1-1h-1c-1.76-.59-3.48-1.28-5.27-1.75-5.57-1.47-10.59-4.2-15.71-6.73a61,61,0,0,1-17.7-12.74c-1.19-1.27-2-2.88-3.22-4.14-3.1-3.28-4.34-7.49-6.15-11.46-2.09-4.57-2.31-9.55-2.72-14.29a57.93,57.93,0,0,1,.58-17.1c1-4.93,1.5-9.88,4.15-14.32.37-.62.05-1.64.05-2.47,2.21-.56,2.08-2.29,2-4l1-1a31.4,31.4,0,0,1,7.38-8.83c2.77-2.5,5.74-4.79,8.62-7.17.17,0,.38.07.49,0,5.26-3.93,11.26-6.32,17.42-8.41,5.88-2,11.74-4.08,18-4.58,1.77-2.14,4.49-.54,6.75-1.78,1.91-1,4.86-.22,7.34-.22,0,.17-.07.41,0,.48a5.42,5.42,0,0,0,1,.51v-8.51c0-13.24,0-26.48,0-39.72,0-.91,1-2.43-1-2.77v-2c1.37-1,1.37-2,0-3v-6h3c0-1-.26-1.77,0-2.21,3.08-4.55,5.58-9.65,10.88-12.21.7-1.9,3.25-.88,4.08-2.58h3c.23,1.54-.61,2.32-1.86,3a29.46,29.46,0,0,0-6.17,4.45,32.75,32.75,0,0,0-8.12,11.64,21.69,21.69,0,0,0-1.88,8.22q.08,49.19,0,98.38c0,1.5.05,3,0,4.49,0,.28-.62.53-1,.79-.27-.11-.75-.16-.79-.33-.44-1.88-.82-3.78-1.21-5.67-.07-4.34.14-8.69-.18-13.68-2.36,1.7-4.11,3-5.89,4.24-4.08,2.87-7.42,5.21-10.43,11.38-.24.48-1,.71-1.51,1.06-3.1,1.5-4.3,4.65-5.66,7.36s-2.17,6.17-1.09,9.32c2.94,8.59,7.63,16.16,14.84,21.76a26.48,26.48,0,0,0,12.63,5.66c3.56.5,7.1,1.39,10.63,2.11,2.18.45,4.51,1,6.73,1.72s4.31-.13,6.64.87c2.11.91,4.91.23,7.41.18,3.55-.07,7.16.52,10.57-1,7,.5,13.22-2.39,19.38-5.06a51.77,51.77,0,0,0,19.25-13.79c3.8-4.47,6.56-9.66,6.71-16.2s-1.95-12.35-5.06-17.89c-1.09-1.94-2.24-4-5-4.06l-1-1C491.21,277.65,487.22,274.69,482,274Zm50.64-7.86-.64.36c.11.11.25.33.33.31a3.13,3.13,0,0,0,.67-.31Z" transform="translate(-1 -1)"/><path class="cls-8" d="M437,163h-3c-.12-.28-.21-.8-.35-.81-2.49-.29-4.77-1.29-7.13-1.93-3.11-.85-6-2.95-9.52-2.25-.48-2.09-2.51-2.23-4-3-5.62-2.8-11.14-5.69-15.7-10.15-1.59-1.56-3.54-2.75-5.18-4.26A78.64,78.64,0,0,1,374,114.86a50,50,0,0,1-4.05-11.78c-.25-1.34-1.08-2.6-.9-4.08l2-1c2.91,2.42,5.93,4.61,8.57,7.19,6.57,6.41,15,9.56,23.2,12.67,5.84,2.21,12.36,2.53,18.65,3.15a33.12,33.12,0,0,0,6,0c2-.17,4.09-1,6.06-.85s3.7-.87,5.57-1.19a56.12,56.12,0,0,0,19.45-7.14A76.79,76.79,0,0,0,478.11,95.3,60.39,60.39,0,0,0,484.45,86c3-5.38,5.77-10.92,7.07-17,1-4.46,2.7-8.8,2.44-13.45-.29-5.35.47-10.68-.77-16.1-.76-3.33-1.44-6.74-2.2-10.1-.9-3.94-3.37-7.25-4.44-11.15-.35-1.29-2-2.23-2.31-3.51-.81-3-4.26-5-3.25-8.65,3.06-.5,5.35,1.62,7.91,2.57a64.46,64.46,0,0,1,18.81,11A95.91,95.91,0,0,1,522.42,34.7a141.8,141.8,0,0,1,7.95,12.2c2.59,4.23,3.37,9.22,5.56,13.64.46.93.07,2.29.07,3.45-1.42.9-1.65,2.32-2.09,3.84-.78,2.7-1.23,5.5-1.77,8.2a101.13,101.13,0,0,1-9,25.25,122.6,122.6,0,0,1-13.6,20.85,107.56,107.56,0,0,1-18.16,17.69,121.23,121.23,0,0,1-13.25,8.75c-5.09,3.07-10.52,5.16-15.93,7.38a100.38,100.38,0,0,1-17.35,5.13c-1.22.26-3.32.59-2.89,2.91Z" transform="translate(-1 -1)"/><path class="cls-6" d="M295,222c.7-1.53,1.28-3.13,2.11-4.58,3.49-6.1,7.36-11.89,13.58-15.65a5.84,5.84,0,0,0,1.75-1.75c.93-1.4,2.3-1,3.56-1v2.57c2.55-1.39,4.53-3.35,6.54-3.39,4.45-.07,7.6-4.22,12.15-3.37,1.32-1.58,3.43-.07,4.58-.91,2-1.48,4.43-.06,6.07-1,2.26-1.34,4.45-.63,6.65-.84a29.55,29.55,0,0,1,5.48,0c1.71.16,3.42,1,5.07.89,6.36-.5,12.32,1.29,18.21,3.14,7.58,2.38,14.68,5.87,19.89,12.16,2.74,3.31,4.61,7.23,4.26,11.65a15.12,15.12,0,0,1-2,6.59,35.57,35.57,0,0,1-6,7c-1.81,1.7-3.93,3.45-6.22,4.13s-4.29,2.46-6.76,3-4.64,2.11-7,2.21-4.29,1.17-6.53,1.29c-.89,0-1.73.76-2.62.83-2.71.2-5.52-.45-8.07,1a16.57,16.57,0,0,0-9.65,0c-2.18-1.6-4.7-.76-7.07-1a37.25,37.25,0,0,1-4.08-1c-1.38-.32-2.76-.17-4.23-.59-3.29-.93-6.41-2.28-9.63-3.28-7.35-2.29-12.79-7-17.8-12.44-.55-.6-.13-2.13-2.08-1.59,0,1.58-.55,3.16.3,5A73.05,73.05,0,0,1,308,238c-.49,0-1.19.21-1.45,0-4.72-4.45-9.19-9.09-9.87-16Z" transform="translate(-1 -1)"/><path class="cls-9" d="M308,238a73.05,73.05,0,0,0-2.52-6.94c-.85-1.8-.33-3.38-.3-5,1.94-.54,1.52,1,2.08,1.59,5,5.44,10.45,10.15,17.8,12.44,3.22,1,6.34,2.35,9.63,3.28,1.47.42,2.85.27,4.23.59a37.25,37.25,0,0,0,4.08,1c2.37.27,4.89-.57,7.07,1a16.57,16.57,0,0,1,9.65,0c2.55-1.48,5.36-.84,8.07-1,.89-.07,1.74-.78,2.62-.83,2.23-.12,4.22-1.19,6.53-1.29s4.62-1.66,7-2.21,4.32-2.31,6.76-3,4.42-2.44,6.22-4.13a35.57,35.57,0,0,0,6-7,15.12,15.12,0,0,0,2-6.59c.35-4.42-1.52-8.34-4.26-11.65-5.2-6.29-12.3-9.78-19.89-12.16-5.88-1.84-11.84-3.63-18.21-3.14-1.66.13-3.37-.73-5.07-.89a29.55,29.55,0,0,0-5.48,0c-2.2.21-4.39-.5-6.65.84-1.64,1-4-.46-6.07,1-1.15.84-3.26-.67-4.58.91-4.55-.85-7.7,3.29-12.15,3.37-2,0-4,2-6.54,3.39V199c2.2.15,3.12-1.39,4-3,.76-.15,1.91.5,2-1l1-1c2.28-2.57,5.64-3.51,8.54-4.76A51.65,51.65,0,0,1,345,185c.76-.15,1.91.5,2-1,2.57.26,4.85-1.68,7.49-1,1.73-2,4-.63,6-1l5.51-1v2.05A79.29,79.29,0,0,1,388.89,185c3.63.91,7.57,1.1,10.13,4.48.24.31.83.36,1.26.52a36.35,36.35,0,0,1,13.13,8,2.85,2.85,0,0,0,2.58,1v42c-2.49,0-5.43-.83-7.34.22-2.26,1.24-5-.36-6.75,1.78-6.26.5-12.11,2.59-18,4.58-6.16,2.08-12.16,4.47-17.42,8.41-.11.08-.32,0-.49,0,0-1.37-1.06-.94-1.78-1-5-.33-10,0-15.05-.77-4.52-.7-9-1.55-13.57-2.25-3.5-.54-16-5.17-19-7-.94-.57-1.74-1.81-2.67-1.89-2.14-.18-3.07-1.51-3.93-3.1l-1-1Z" transform="translate(-1 -1)"/><path class="cls-9" d="M481,6c-1,3.64,2.43,5.64,3.25,8.65.35,1.28,2,2.23,2.31,3.51,1.07,3.9,3.54,7.21,4.44,11.15.77,3.36,1.44,6.77,2.2,10.1,1.24,5.42.48,10.75.77,16.1.25,4.65-1.49,9-2.44,13.45-1.3,6.1-4.06,11.64-7.07,17a60.39,60.39,0,0,1-6.34,9.33,76.79,76.79,0,0,1-19.61,16.49A56.12,56.12,0,0,1,439,118.93c-1.87.31-3.48,1.4-5.57,1.19s-4,.68-6.06.85a33.12,33.12,0,0,1-6,0c-6.29-.62-12.81-.94-18.65-3.15-8.23-3.11-16.64-6.27-23.2-12.67-2.64-2.58-5.66-4.77-8.57-7.19l-2,1a57.47,57.47,0,0,1-2-8.09q0-5,0-9.91c1.65,0,3,0,4.06,1.84a45.87,45.87,0,0,0,10.83,13.45c4.58,3.8,9.23,7.63,14.83,9.9,4.86,2,9.58,4.19,14.94,5a83.26,83.26,0,0,0,8.6.81c.81,0,1.91-.2,2.36.23,1.15,1.09,1.82.81,2.88-.11.48-.42,1.59-.11,2.41-.13a51.75,51.75,0,0,0,23-5.93A62.73,62.73,0,0,0,464.62,97C471.76,90.49,476,85.15,480,76.48c2.58-5.54,5.06-11.1,5-17.4,1.71-2.7,1-5.71.93-8.56-.08-2.56.85-5.2-.59-7.72-1.3-2.28.45-5-1.21-7.51-1.3-2-1.33-4.73-2.16-7.06a46.36,46.36,0,0,0-3-6.73c-2.84-5.13-6-10.1-10.23-14.21C467.42,6,466.66,4.8,467,3h2l.33.83L470,3c1.25.08,2.71-.22,3.71.33C476,4.61,479.11,3.7,481,6Z" transform="translate(-1 -1)"/><path class="cls-3" d="M310,240c.86,1.59,1.79,2.91,3.93,3.1.94.08,1.73,1.31,2.67,1.89,3,1.83,15.49,6.46,19,7,4.53.7,9,1.55,13.57,2.25,5.07.78,10,.45,15.05.77.72,0,1.77-.38,1.78,1-2.88,2.38-5.85,4.67-8.62,7.17A31.4,31.4,0,0,0,350,272l-1,1-2,2c-.65,0-1.44-.24-1.93,0-3.17,1.81-6.79,2.46-10.07,4-1.28-.11-2.72.12-3.81-.39-8.62-4-16.94-8.59-24-15a38.61,38.61,0,0,1-7-8c-2.89-4.69-6-9.4-6.4-15.21,0-.13-.53-.23-.81-.35v-8c-.27-3.52,1.53-6.63,2-10h1.68c.68,6.88,5.15,11.51,9.87,16,.26.25,1,0,1.45,0l1,1Z" transform="translate(-1 -1)"/><path class="cls-7" d="M243,249a7.58,7.58,0,0,1-3.69,3.34c-2,1.06-4.41,1.61-5.88,3.63-.17.23-.94,0-1.42,0-1.33-1.49-2.55-3.09-4-4.46-3-2.88-5.77-6-9.27-8.51-2.54-1.78-4.34-4.61-6.7-7.22L209,238a2.46,2.46,0,0,0-3,2l-1,1a13.18,13.18,0,0,0-2.13.67A14.07,14.07,0,0,0,201,243c-2,.32-3.57-.78-5.2-1.69-2.9-1.62-5.9-2.84-9.37-2.35a31.83,31.83,0,0,1-4.42,0v-2.78a25.58,25.58,0,0,0-4.35-1.17c-2.37-.23-4.83.28-6.82-1.65A2.59,2.59,0,0,0,169,233c-4.54.37-8.74-1.34-12.89-2.62-2.52-.77-5,.34-7.53-1.06a13.54,13.54,0,0,0-7.39-1.41c-3.95.25-7.92.07-12.23.07v-2c4,0,8,.06,12,0,7.32-.13,14.3-2.11,21.4-3.67,4.57-1,8.94-2.84,13.63-3.32l-2.2,3.42c3,1.8,6.28,1.67,9.25,2.38a81.16,81.16,0,0,0,8.8,1.6c2.93.37,5.73,1.44,8.73,1.68,2.26.18,4.44,1.43,6.71,1.61s5.26,1.87,6.71-1.69l6.23,3.94h6.43Z" transform="translate(-1 -1)"/><path class="cls-7" d="M87,215c0,.17.07.38,0,.49-1,1.48-1.81-.43-2.74-.23s-2.27,1-2.59.65c-1.58-1.58-3.47-.54-5.13-1s-3.14-1.32-4.77-1.64-3.63,0-5.33-.38c-3.33-.84-6.58-2-10.07-2.09-1.12-1.5-2.75-.57-4.12-.86s-2.7-.73-4.07-1c-5.39-1-10.74-2.22-16.12-3.22a44.58,44.58,0,0,1-9.41-2.38c-3.1-1.31-6.88-1-10.35-1.43-.82-.11-2.11.69-2.28-1l2-1.66a55,55,0,0,0,0-5.89,9.24,9.24,0,0,1,1.15-5c1.67-3.51,3.84-4.21,7.52-2.42,6.5,3.16,12.85,6.63,19.48,9.49,7.6,3.28,15.06,6.92,22.94,9.54a80.48,80.48,0,0,1,7.58,3.31c4.49,2,9.35,3.09,13.66,5.49C85.17,214.33,86.77,213.08,87,215Z" transform="translate(-1 -1)"/><path class="cls-4" d="M214,228c-1.45,3.57-4.4,1.88-6.71,1.69s-4.44-1.43-6.71-1.61c-3-.24-5.8-1.32-8.73-1.68a81.16,81.16,0,0,1-8.8-1.6c-3-.71-6.21-.58-9.25-2.38L176,219h1c.42.33.88,1,1.25.94,1.21-.16.62-1.23.75-1.94a50.16,50.16,0,0,1,5.55-1c6.12-.4,11.75,1.19,17.28,3.87C206.1,223,210.38,224.88,214,228Z" transform="translate(-1 -1)"/><path class="cls-3" d="M416,199a2.85,2.85,0,0,1-2.58-1,36.35,36.35,0,0,0-13.13-8c-.43-.16-1-.21-1.26-.52-2.56-3.38-6.5-3.57-10.13-4.48A79.29,79.29,0,0,0,366,183.05V181c7.92-1.8,16-.7,23.94-1a5.59,5.59,0,0,1,4.06,1c-.65,2.3-3,0-4,1.55a39.35,39.35,0,0,0,5.82,1.39,44.45,44.45,0,0,1,10.27,2.64c3.31,1.12,6.62,2.28,9.92,3.42v9Z" transform="translate(-1 -1)"/><path class="cls-2" d="M417,158c3.49-.7,6.41,1.4,9.52,2.25,2.36.64,4.64,1.65,7.13,1.93.15,0,.24.53.35.81-.83,1.69-3.37.68-4.08,2.58-5.31,2.57-7.81,7.66-10.88,12.21-.29.44,0,1.25,0,2.21h-3c0-3.65-.13-7.31,0-11S416.67,161.68,417,158Z" transform="translate(-1 -1)"/><path class="cls-8" d="M416,190c-3.31-1.14-6.61-2.3-9.92-3.42a44.45,44.45,0,0,0-10.27-2.64,39.35,39.35,0,0,1-5.82-1.39c1-1.56,3.37.75,4-1.55,2.37.35,4.88-.78,7.15.65,2,1.24,4.2-.13,6.48,1.14s5.54.88,8.37,1.21v6Z" transform="translate(-1 -1)"/><path class="cls-7" d="M108,222c-.25.33-.58,1-.75.95a19.76,19.76,0,0,1-3.9-1.2c-.32-.15-.25-1.15-.36-1.75A15,15,0,0,1,108,222Z" transform="translate(-1 -1)"/><path class="cls-7" d="M126,226c-.81,2.1-2.44.59-3.67.83L122,225a17.82,17.82,0,0,1,2.82,0C125.25,225.12,125.61,225.67,126,226Z" transform="translate(-1 -1)"/><path class="cls-6" d="M320,196c-.88,1.61-1.8,3.15-4,3C316.41,196.23,316.66,196,320,196Z" transform="translate(-1 -1)"/><path class="cls-7" d="M179,218c-.14.71.45,1.78-.75,1.94-.37,0-.83-.61-1.25-.94C177.09,217.5,178.24,218.15,179,218Z" transform="translate(-1 -1)"/><path class="cls-6" d="M347,184c-.09,1.5-1.24.85-2,1C345.09,183.5,346.24,184.15,347,184Z" transform="translate(-1 -1)"/><path class="cls-6" d="M322,195c-.09,1.5-1.24.85-2,1C320.09,194.5,321.24,195.15,322,195Z" transform="translate(-1 -1)"/><path class="cls-6" d="M323,194l-1,1Z" transform="translate(-1 -1)"/><path class="cls-10" d="M134,399c2.1,1.93,4.2,3.86,6.29,5.8,4.81,4.47,9.39,9.23,14.51,13.3,2.83,2.25,5.28,4.83,8,7.16,6.42,5.53,12.72,11.19,19,16.83,2.91,2.6,5.75,5.29,8.66,7.88,2,1.82,4.21,3.51,6.28,5.31s3.62,4.21,6.29,5.31c.43.18.7.69,1.07,1,4.1,3.77,8.05,7.71,12.33,11.25,4.86,4,9.6,8.2,14.4,12.31,4.42,3.78,8.73,7.69,13.23,11.37,5,4.11,9.91,8.34,14.77,12.64,3.85,3.4,8,6.49,11.86,9.92,5.65,5,11.59,9.71,17.45,14.49.43.35,1.21.26,1.83.38a10.74,10.74,0,0,0,1.06,1.54c3.48,3.56,8.21,5.6,11.49,9.43.21.24,1,0,1.45,0,.11.61,0,1.46.38,1.8,1,.94,2.3,1.61,3.39,2.5,2.23,1.82,4.34,3.8,6.62,5.56,2,1.52,4.17,2.73,6.15,4.24,2.16,1.64,4.14,3.52,6.29,5.19A6.94,6.94,0,0,0,329,565a10.44,10.44,0,0,0,1.79,2.23c3.71,2.65,7.48,5.21,11.26,7.76q12,8.12,24.58,15.37c3.64,2.1,7.42,3.85,11.09,5.85A64.56,64.56,0,0,0,389,601.53c5.41,1.7,10.67,3.76,16.55,3.53a57.31,57.31,0,0,0,15.29-2.89c3-.94,5.84-1.94,8.75-3s5.86-1.92,8.76-3c4.47-1.66,8.87-3.56,13.23-5.44,8-3.48,16-7.18,23.95-10.91,15.48-7.29,30.7-15.15,46-22.92,1.25-.64,3.24-.86,3.51-2.89,1.85-.67,3.74-1.23,5.53-2,4.63-2,9.37-3.91,13.47-7a21.46,21.46,0,0,0,5.67-2c10.83-4.79,21-11,32-15.34a77.69,77.69,0,0,0,11.56-5.77c3.52-2.1,7.63-3.11,10.72-5.94,2.52-.57,5.1-1,7-3,.76-.15,1.91.5,2-1,.5,0,1.09.18,1.48,0,7.47-4,15-7.8,22.83-11.07,7.51-3.13,14.66-7.13,22-10.69,9-4.37,18-8.64,27-13,6.08-3,11.94-6.48,18.22-9,3.17-1.26,6.18-2.75,9.21-4.23a71.81,71.81,0,0,0,9-4.88c5-3.36,10.17-6.24,12.77-12A2.15,2.15,0,0,1,738,446c.11,2.61-.3,5.39.48,7.79s.32,4.85.48,7.25c.18,2.64,0,5.31,0,8v5c-.33.43-1,.86-1,1.29,0,3.86,0,7.7-2,11.18.82,4.39-1.88,7.92-3.21,11.68a30.22,30.22,0,0,1-5.62,9.16c-5,5.86-11.35,9.59-18.24,12.71-7.86,3.56-16,6.73-23.36,11.12-9.08,5.39-18.71,9.62-28,14.62-9.09,4.9-18.5,9.23-27.75,13.86Q583.5,582.8,537.13,606c-2.49,1.25-4.85,2.75-7.36,4-7.62,3.72-15.32,7.27-22.92,11-14.25,7-28.49,14.11-42.63,21.38-2.75,1.41-5.82,1.93-8.4,4-2.29,1.86-5.62,2.41-8.41,3.7s-5.42,3-8.27,4.17A158.16,158.16,0,0,1,419,661.16a73.11,73.11,0,0,1-25.19,1.61,56.29,56.29,0,0,1-19.16-5.48c-8-3.82-15.51-8.36-23.4-12.29-4.79-2.39-9.05-5.64-13.35-8.75q-10.43-7.56-20.7-15.36c-4.92-3.72-9.58-7.81-14.81-11.17-4-2.59-7.47-6.09-11.26-9.08s-7.62-5.74-11.4-8.66c-2.16-1.66-4.27-3.4-6.36-5.15-4.34-3.63-8.56-7.4-13-10.93-5.73-4.58-11.64-8.93-17.39-13.48-2.67-2.11-5-4.63-7.76-6.66-4.75-3.53-9-7.73-13.91-11a62,62,0,0,1-5.61-4.57c-4.69-4-9.28-8.09-14-12-4.44-3.64-9.08-7.06-13.57-10.64-2.4-1.92-4.72-4-7-6-5.16-4.61-10.6-8.87-16.06-13.1-2.69-2.08-5-4.62-7.76-6.65-5.54-4.15-10.26-9.26-16-13.17a54.82,54.82,0,0,1-7.37-6.33c-4.65-4.55-10.14-8.08-14.86-12.59a130.08,130.08,0,0,0-11.5-9.57c-5-3.77-9.35-8.3-14.55-11.82-2.25-1.52-3.78-4-6.32-5.28-.4-.2-.51-1-1-2,1.92,0,3.39-.11,4.83,0,5.72.52,10.5-2,14.91-5a97.21,97.21,0,0,0,11.55-9.52c4.84-4.59,9.43-9.42,15.06-13.08.15-.1,0-.63,0-.95-8.07-2.26-16.3-1.07-24.43-1.51s-15.87-3.16-23.06-7c-3.3-1.77-9.56-9-12.5-13.69-2.09-3.3-4-6.69-6.24-9.9-1-1.44-2.46-2.54-4.42-4.49-.38,8-2.15,14.8-1.07,22.15H58c-.33-.53-.9-1-1-1.59-.41-3.85-.7-7.7-1-11.56-.33-3.69-.92-7.37-.93-11.06a135.27,135.27,0,0,1,1.15-14.53,62.48,62.48,0,0,1,4.84-19.38c1.69-3.71,3.23-7.64,6.76-10.16A7.91,7.91,0,0,1,70,319c.74,2.06-1.37,2.78-2.1,4.08A35.59,35.59,0,0,0,63,343.92a22.87,22.87,0,0,0,1.37,6.87,69.72,69.72,0,0,0,5.79,11c1.63,2.49,4.1,4.21,5.59,6.63A24,24,0,0,0,82,375l1,1,1,1c3.78,4.56,9,7.14,14,9.91,2.92,1.61,5.79,3.39,9.21,4.21,3.24.78,6.26,2.43,9.57,3.3,5.43,1.43,10.66,3.63,16.41,3.63C133.48,398,133.74,398.67,134,399Z" transform="translate(-1 -1)"/><path class="cls-3" d="M82,375a24,24,0,0,1-6.22-6.55c-1.49-2.42-4-4.14-5.59-6.63a69.72,69.72,0,0,1-5.79-11A22.87,22.87,0,0,1,63,343.92a35.59,35.59,0,0,1,4.86-20.83c.73-1.3,2.83-2,2.1-4.08,2.44-2.61,4.77-5.34,7.35-7.81a75.08,75.08,0,0,1,26.21-16c3-1.11,5.78-3,9.15-3.2s6.26-2.08,9.63-2c1.62-1.65,3.81-.46,5.53-1.09A13.64,13.64,0,0,1,133,288c3.05.06,5.91-1.74,9-1v2h-5.06v5a45.15,45.15,0,0,0-4.81,0c-1.38.16-2.71.77-4.09.94a77.86,77.86,0,0,0-11.35,2.77c-3.48,1-6.49,2.92-9.79,4.13-3.45,1.26-6.35,3.3-9.34,5.18a30.36,30.36,0,0,0-8.91,8.64,34.33,34.33,0,0,0-4.47,7.67A21,21,0,0,0,85.06,340a34.51,34.51,0,0,0,11.5,13.23,78.31,78.31,0,0,0,17.63,9.4,75.91,75.91,0,0,0,10.18,3.16c4.15.95,8.38,1.56,12.6,2.17,2.68.39,5.56-.68,8.08,1,6.4.47,12.73-.53,19.08-1,.41,0,.76-.54,1.18-.76a16.43,16.43,0,0,1,2.5-1.19c3.24-1,6.53-1.92,9.74-3,9-3.12,17.43-7.21,24.08-14.2,1.94-2,3.23-4.68,5-6.88,2.08-2.55,2.58-5.67,3.26-8.64a17.77,17.77,0,0,0-2.11-12.54C205.08,315.92,202,311,197,308c-1.54-.93-3.16-1.79-3-4,.33,0,.74-.12,1,0q4.24,2.42,8.45,4.92c4.31,2.54,7.53,6.33,10.82,9.94a28.14,28.14,0,0,1,6.57,14.18c1.17,6.76-.91,13.17-5.09,18.76A7.44,7.44,0,0,0,215,354a59.67,59.67,0,0,0-4.7,4.25c-4.23,4.69-9.63,7.7-15,10.75-4.34,2.46-9.17,3.58-13.89,5a115.27,115.27,0,0,1-11.73,3c-3.29.6-3.7.61-3.64,3.75.09,4,.37,8,.58,12.08-.76.34-1.75,1.2-2.71,1.16a73.62,73.62,0,0,0-14,1.08c-2,.31-3.72-.83-5.57-.95-4.52-.28-9.06.24-13.56-1-2.58-.71-5.65-.13-8-1.25-1.93-.94-3.76-.42-5.56-1.06-4.63-1.68-9.36-3.08-14-4.78-2.88-1.06-6-2-8.36-3.8-2.67-2-6.17-2.48-8.44-5.11-.36-.41-1.6-.06-2.43-.06l-1-1Z" transform="translate(-1 -1)"/><path class="cls-9" d="M194,304c-.2,2.21,1.42,3.07,3,4,5,3,8.11,7.92,10.85,12.72a17.77,17.77,0,0,1,2.11,12.54c-.68,3-1.18,6.1-3.26,8.64-1.79,2.2-3.08,4.84-5,6.88-6.65,7-15.11,11.08-24.08,14.2-3.21,1.12-6.51,2-9.74,3a16.43,16.43,0,0,0-2.5,1.19c-.42.22-.77.73-1.18.76-6.35.5-12.68,1.5-19.08,1-2.52-1.71-5.4-.64-8.08-1-4.22-.61-8.45-1.22-12.6-2.17a75.91,75.91,0,0,1-10.18-3.16,78.31,78.31,0,0,1-17.63-9.4A34.51,34.51,0,0,1,85.06,340a21,21,0,0,1-.88-16.65,34.33,34.33,0,0,1,4.47-7.67A30.36,30.36,0,0,1,97.56,307c3-1.88,5.89-3.92,9.34-5.18,3.3-1.21,6.31-3.16,9.79-4.13A77.86,77.86,0,0,1,128,295c1.38-.17,2.71-.78,4.09-.94a45.15,45.15,0,0,1,4.81,0v-5H142v-2c7.64,0,15.29,0,22.93,0,1.46,0,2.88,0,4.07,1-.26.33-.51.94-.79,1-1.82.09-3.64.08-5.46,0a2.42,2.42,0,0,0-2.76,2.1c1.39,3.51,4.71,1,6.88,2.25l.27,2.46c1.58.76,3.35.13,5.11.73,3.62,1.24,7.35,2.34,11,3.27A67.71,67.71,0,0,1,194,304Zm-51.76,54c3.61-.44,8-.07,12.38-.75a65.12,65.12,0,0,0,16.18-4.55A8.81,8.81,0,0,1,172,352c7.35-1.78,11.83-7.47,16.85-12.41.18-.18,0-.67.15-.92,3.85-6.6,2.11-12.9-1.63-18.66-3.25-5-11.34-10-17.45-12-3.7-1.22-7.17-3.25-11.26-3-1.79-1.79-4.36-.17-6-1.13-2.27-1.33-4.46-.64-6.66-.83-2-.18-4,0-6,0a29,29,0,0,1-5.49-.07c-2.11-.41-3.65,1.28-5.6,1.06s-3.77.87-5.59.9c-3,0-5.39,1.64-8.16,2.13-2.93.52-5.42,2.25-8,3.51a33.89,33.89,0,0,0-10.89,8.73c-5.3,6.2-5.89,13.19-2.06,19.81,2,3.53,5.71,6.26,9,8.87,4.81,3.8,10.44,5.95,16.45,7.35,2.41.56,4.64,1.9,7.27,1.72s5.23,1.52,8.09,1.06C137.12,357.73,139.33,358,142.24,358Z" transform="translate(-1 -1)"/><path class="cls-8" d="M194,304a67.71,67.71,0,0,0-10.71-4.2c-3.69-.94-7.43-2-11-3.27-1.75-.6-3.53,0-5.11-.73l-.27-2.46c-2.17-1.26-5.49,1.26-6.88-2.25a2.42,2.42,0,0,1,2.76-2.1c1.82.05,3.65.05,5.46,0,.28,0,.52-.62.79-1h6c.26.33.54,1,.79,1,5.17-.17,9.86,1.88,14.75,3a84.72,84.72,0,0,1,20.64,8.05c5.28,2.85,10.51,5.9,14.71,10.34,3.14,3.33,6.53,6.37,9.27,10.12,3.3,4.5,5.18,9.5,7.19,14.57-6.09,3.76-12,7.16-17.62,11-2.69,1.85-4.85,4.5-7.15,6.89a2.77,2.77,0,0,1-2.59,1,7.44,7.44,0,0,1,.73-2.18c4.18-5.6,6.26-12,5.09-18.76a28.14,28.14,0,0,0-6.57-14.18c-3.28-3.61-6.51-7.4-10.82-9.94q-4.21-2.49-8.45-4.92C194.74,303.88,194.33,304,194,304Z" transform="translate(-1 -1)"/><path class="cls-11" d="M5,208c1.19-.31,2.94-1.27,3.45-.82,1.39,1.22,2.82.6,4.21.82,1.24.19,2.45-.29,3.72.73s3.59-.6,5,1.13c4.25-.51,7.82,2.83,12.1,2.13,3,1.84,7.07,0,9.85,2.76.27.27.92.24,1.38.22,4.35-.18,8.34,2,12.65,2,1.45,1.57,3.44.56,5.05,1.07s3.52,1.1,5.24,1.79,3.66-.15,5.42.2c3,.61,6,1.63,9,2.45a7.76,7.76,0,0,0,2.29.46,14.24,14.24,0,0,1,7.83,1.63A4.13,4.13,0,0,0,94,225a32.5,32.5,0,0,1,6.62.84c2,.48,4,.68,5.71,2,.12.09.29.22.41.2,5-1.11,9.24,2.66,14.15,2.05a7.5,7.5,0,0,1,2.24.56c2,.44,3.73,1.61,5.91,1.45s3.84,1.53,6.08,1a4.51,4.51,0,0,1,3.63.85,7.73,7.73,0,0,0,4.52,1.18,12.22,12.22,0,0,1,6,1c1.77,1,3.78.16,5.06,1,1.77,1.16,3.44.73,5.16.84a7,7,0,0,1,3.14.91,7.34,7.34,0,0,0,4.52,1.16c2.08-.28,2.95,1,2.86,3-4.64,1.42-8.92,4.1-14,4-.12-.62,0-1.6-.39-1.78a9.75,9.75,0,0,0-3.49-1.18c-4.26-.42-8.18-2.9-12.65-2.09-.19,0-.43-.59-.7-.65-4.4-1-8.91-1.52-13.11-3.3a1.19,1.19,0,0,0-.5,0c-4.69.27-8.91-1.82-13.38-2.59-3.57-.61-7.19-.77-10.52-2.39a1.63,1.63,0,0,0-1,0c-2.51.58-4.65-.88-7-1.24-.91-.14-1.76-.63-2.67-.75-2.85-.39-5.71-.67-8.56-1a2.83,2.83,0,0,1-1.22-.65c-1.78-1.37-3.84-1.26-5.94-1.38-2.52-.15-5.38-.05-7.45-1.21-4-2.21-8.3-1.66-12.4-2.57s-8.17-2.81-12.6-2.24c-.2,0-.47-.64-.7-.64-2.94,0-5.68-2.39-8.75-.85V222a8.05,8.05,0,0,1-1.83-.36c-5.14-2.3-10.37-4.46-15.43-6.86C12,213,7.82,211.43,5,208Z" transform="translate(-1 -1)"/><path class="cls-5" d="M33,222v-1.56c3.08-1.55,5.81.84,8.75.85.24,0,.5.67.7.64,4.43-.57,8.47,1.32,12.6,2.24s8.44.37,12.4,2.57c2.07,1.16,4.93,1.06,7.45,1.21,2.09.12,4.16,0,5.94,1.38a2.83,2.83,0,0,0,1.22.65c2.85.38,5.72.65,8.56,1,.91.13,1.76.61,2.67.75,2.34.35,4.48,1.81,7,1.24a1.63,1.63,0,0,1,1,0c3.33,1.62,6.95,1.78,10.52,2.39,4.47.77,8.69,2.86,13.38,2.59a1.19,1.19,0,0,1,.5,0c4.2,1.78,8.71,2.33,13.11,3.3.27.06.52.68.7.65,4.47-.81,8.39,1.67,12.65,2.09a9.75,9.75,0,0,1,3.49,1.18c.35.18.27,1.17.39,1.78,0,.16,0,.44,0,.45-1.66.53-3.33,1-5,1.55.23-1.54-.62-3-1.86-2.87-2.25.25-4.07-1.35-6.08-1-2.41.37-4.4-.84-6.55-1.28a14,14,0,0,0-3.13-.8c-4.17.05-8.07-1.37-12.08-2.21a25.34,25.34,0,0,0-2.67-.76,12.72,12.72,0,0,1-4.63-.93c-2-.93-4.27-1-6.52-1.23-3.06-.29-6.34-.5-9.06-2.11a6.05,6.05,0,0,0-3.2-.76c-1.16,0-2.43.29-3.48-.06-4.65-1.53-9.5-2-14.24-3.06-1.87-.42-4.13-.21-5.5-1.06-2.09-1.31-4.45,0-6.4-1.58a7.56,7.56,0,0,0-5.45-1.3,9.5,9.5,0,0,1-3.24-.55c-2.39-.65-4.71-.8-6.91.61a8,8,0,0,1-4.1-1c-3.56-1.46-7.21-2.7-10.81-4.05C34.37,222.72,33.69,222.33,33,222Z" transform="translate(-1 -1)"/><path class="cls-2" d="M141,250c-.43.33-.86.95-1.29,1-4.49.07-9.06.53-13.47-.08-5.87-.81-11.79-1.54-17.48-3.53-3.36-1.18-7.11-1.32-10.4-2.64a74.54,74.54,0,0,0-10-3.49C82.75,239.85,77.43,237.8,72,236v-2c1.65,0,3.27-.48,4.2.11,1.39.9,2.73.74,4.14.92s3,.79,4.57.94c4.25.42,8.16,2.88,12.61,2.07.09,0,.21.25.35.33,3.53,2,7.58,1.8,11.38,2.53,4,.77,7.78,3,12.12,2.18.71-.13,1.62.79,2.43,1.23.41.22.84.71,1.2.65,4.76-.73,9,2.06,13.62,2.08C140.33,247.05,141.2,248.22,141,250Z" transform="translate(-1 -1)"/><path class="cls-10" d="M141,250c.2-1.78-.67-2.95-2.36-3-4.65,0-8.86-2.82-13.62-2.08-.36.06-.8-.43-1.2-.65-.81-.44-1.72-1.36-2.43-1.23-4.33.78-8.11-1.41-12.12-2.18-3.8-.73-7.85-.56-11.38-2.53-.14-.08-.26-.35-.35-.33-4.45.82-8.36-1.65-12.61-2.07-1.54-.15-3-.74-4.57-.94s-2.75,0-4.14-.92c-.93-.6-2.55-.11-4.2-.11v2l-15.61-5.11c-1.88-.62-3.76-1.23-5.61-1.92-.33-.13-.52-.64-.78-1,2.2-1.41,4.52-1.26,6.91-.61a9.5,9.5,0,0,0,3.24.55,7.56,7.56,0,0,1,5.45,1.3c2,1.55,4.31.28,6.4,1.58,1.36.85,3.62.65,5.5,1.06,4.73,1.05,9.59,1.53,14.24,3.06,1.05.35,2.32,0,3.48.06a6.05,6.05,0,0,1,3.2.76c2.72,1.6,6,1.81,9.06,2.11,2.25.21,4.56.3,6.52,1.23a12.72,12.72,0,0,0,4.63.93,25.34,25.34,0,0,1,2.67.76c4,.84,7.91,2.27,12.08,2.21a14,14,0,0,1,3.13.8c2.15.44,4.14,1.65,6.55,1.28,2-.31,3.84,1.3,6.08,1,1.24-.14,2.09,1.34,1.86,2.87-1.68.33-3.35.79-5,1A49.33,49.33,0,0,1,141,250Z" transform="translate(-1 -1)"/><path class="cls-2" d="M201,243a14.07,14.07,0,0,1,1.87-1.33A13.18,13.18,0,0,1,205,241c-.35,1.37.57,2.09,1.4,2.92q7.43,7.38,14.82,14.8l2.52,2.52c-3.14,1-4.62,3.78-7.74,3.76q-5.74-6-11.48-12c-1.48-1.53-3-3-4.71-4.72Z" transform="translate(-1 -1)"/><path class="cls-4" d="M738,446a2.15,2.15,0,0,0-2.53,1.06c-2.6,5.8-7.82,8.68-12.77,12a71.81,71.81,0,0,1-9,4.88c-3,1.48-6,3-9.21,4.23-6.27,2.48-12.13,6-18.22,9-9,4.39-18,8.66-27,13-7.33,3.56-14.48,7.55-22,10.69C629.47,504.17,622,508,614.48,512c-.39.21-1,0-1.48,0-1.27-.09-1.3-1-.76-1.66a48.75,48.75,0,0,1,3.6-3.48V473.22l-2.84-.54V470a7.74,7.74,0,0,0,1.84-.37c5-2.36,9.72-5.3,15-7.14,1.38-.48,3.41-.62,4.15-2.49,1.87,0,3.14-1.23,4.64-2.07s3.19-1.13,4.73-1.83c5.89-2.67,11.86-5.19,17.59-8.16,7.42-3.84,15.31-6.77,22.09-11.87,1.7-1.28,2.15-2.87,3-4.5,1.84-3.56,0-7.7,2-11.18-.32-6.19.8-12.45-1-18.57-1.17-4-1.8-8.18-4-11.82-.53-1.12-1.22-2.1-1-3.53.31-2.56-1-5-2.17-6.91s-3.86-3.06-5.85-4.57c-1.73-1.32-4-2.27-3.94-5,.62.12,1.42,0,1.83.38,5.76,5.08,12,9.59,18.13,14.16,4.27,3.17,8,7,12.33,10.14s8.09,6.7,12.45,9.68c3.07,2.09,5.65,4.9,8.48,7.34,1.45,1.25,2.39,3.13,4.52,3.58a2,2,0,0,1,1,1c1.72,3.45,5,6.12,5.25,10.34,0,.71.74,1.36.94,2.09,1.07,4,2.47,7.89,2.1,12.17C736.93,442.58,737.67,444.3,738,446Z" transform="translate(-1 -1)"/><path class="cls-7" d="M482,168c0,3.5,0,7,0,10.49a5,5,0,0,1-2.71,4.85c-1.66,1-2.88,2.74-4.29,4.15q0,54.71,0,109.42c0,1.75-.34,3.58,1,5.08-1.73,3.24-5,4.76-7.93,6.29A23.73,23.73,0,0,1,457.39,311c-2.13,0-4.26,0-6.39,0V187.18c-3.51-1.83-4.55-7.06-9.55-6.13-.92.92-1.72,1.76-2.57,2.56a8.71,8.71,0,0,0-2.92,6.81q.1,57.21.05,114.41c0,1-.23,2.39.29,2.81,1.47,1.19-.72,1.55-.3,2.35a10.56,10.56,0,0,1-2.79-.35,29.26,29.26,0,0,0-4.65-1.82c-1.66-.38-3.17-2-4.43-3.3s-3.48-2.08-3.13-4.54c1.67-.18,1-1.49,1-2.29,0-12.49,0-25,0-37.46q0-35,0-69.93a10.85,10.85,0,0,1,.52-4.27,44.29,44.29,0,0,1,9.18-13.15c1.5-1.52,3.68-2.34,5.46-3.6,3.51-2.48,7-3.1,10.92-.77a39.76,39.76,0,0,1,12.93,12c1.61,2.28,3.75,2,4.76.11,2-3.77,5.23-6.37,8.3-9C476.2,169.89,478.55,167.41,482,168Z" transform="translate(-1 -1)"/><path class="cls-5" d="M442,164c-.43-2.33,1.67-2.65,2.89-2.91A100.38,100.38,0,0,0,462.23,156c5.41-2.22,10.83-4.3,15.93-7.38a121.23,121.23,0,0,0,13.25-8.75,107.56,107.56,0,0,0,18.16-17.69,122.6,122.6,0,0,0,13.6-20.85,101.13,101.13,0,0,0,9-25.25c.53-2.7,1-5.5,1.77-8.2.44-1.52.66-2.94,2.09-3.84,1.89.66.42,3.06,2,3.88.66,3.67,1.77,21.47.92,24.05-1.57,4.74-1.75,9.74-3.57,14.5A142.89,142.89,0,0,1,529.47,120a73.42,73.42,0,0,1-12,17,74.65,74.65,0,0,1-16.81,13.76c-2.8,1.64-5.67,3.18-8.6,4.58-2.78,1.32-5.23,3.41-8.49,3.66-.55,0-1.06.63-1.59,1-2.85.67-5.89.91-8.49,2.11-2.82,1.3-5.84.43-8.67,1.73-1.76.81-4.22,0-6.34.19s-4.33.63-6.5,1C448.61,165.28,445.44,163.24,442,164Z" transform="translate(-1 -1)"/><path class="cls-2" d="M398,291c.51-.35,1.27-.58,1.51-1.06,3-6.17,6.35-8.52,10.43-11.38,1.77-1.25,3.52-2.53,5.89-4.24.32,5,.11,9.34.18,13.68-3.21,1.53-4.42,4.43-5,7.63-1.06,6.16,2.15,10.69,6.51,14.2,2.82,2.27,6.44,3.63,9.83,5.12a30.25,30.25,0,0,0,11.23,2.87c7.17.15,14.46,1.19,21.56-.84,3.12-.89,6.24-1.72,9.33-2.79,4.86-1.68,8-5.23,11.42-8.62,3.81-3.8,4.2-9.32,1.09-14.58V274c5.22.69,9.21,3.65,13,7l1,1c0,1.77-.21,3.62,1,5.06,1.08,1.26,1,2.67,1,4.11a34.74,34.74,0,0,0,0,4.49c.58,4.16-1.6,7.54-3.8,10.41-6.15,8-15,12.66-23.95,16.84a20,20,0,0,1-8.63,2c-9.19-.22-18.43,1.12-27.59-.83-4.59-1-9.25-1.56-13.75-3-11.28-3.65-19-10.89-22.86-22.14-.38-1.12-.63-2.81-.06-3.61C398.45,293.81,397.68,292.39,398,291Z" transform="translate(-1 -1)"/><path class="cls-11" d="M442,164c3.44-.76,6.61,1.28,10,1,3.25,2.71,7,4.85,9.71,8.19.29.35.77.78,1.14.76.72,0,2-.25,2.06-.59.49-2.46,3-2.69,4.27-4.13,3.48-3.82,8.33-4.6,12.82-6.23v5c-3.45-.59-5.8,1.89-7.91,3.67-3.07,2.58-6.33,5.18-8.3,9-1,1.94-3.15,2.17-4.76-.11a39.76,39.76,0,0,0-12.93-12c-4-2.33-7.41-1.71-10.92.77-1.78,1.26-4,2.09-5.46,3.6A44.29,44.29,0,0,0,422.54,186a10.85,10.85,0,0,0-.52,4.27q0,35,0,69.93c0,12.49,0,25,0,37.46,0,.8.71,2.11-1,2.29-2.51-1.25-3-3.48-3-6,.33-.26.94-.51,1-.79.1-1.49,0-3,0-4.49q0-49.19,0-98.38a21.69,21.69,0,0,1,1.88-8.22A32.75,32.75,0,0,1,429,170.47a29.46,29.46,0,0,1,6.17-4.45c1.24-.7,2.09-1.49,1.86-3Z" transform="translate(-1 -1)"/><path class="cls-12" d="M418,294c0,2.52.49,4.75,3,6-.35,2.45,1.89,3.21,3.13,4.54s2.78,2.92,4.43,3.3a29.26,29.26,0,0,1,4.65,1.82A10.56,10.56,0,0,0,436,310a7.22,7.22,0,0,0,3.57,1.06c3.8-.17,7.62-.06,11.43-.06,2.13,0,4.26,0,6.39,0a23.73,23.73,0,0,0,10.67-2.71c3-1.53,6.2-3,7.93-6.29,3-2,4-5.23,5-8.46.27-.87.66-1.7,1-2.54,3.1,5.26,2.72,10.78-1.09,14.58-3.4,3.39-6.56,6.93-11.42,8.62-3.08,1.07-6.21,1.9-9.33,2.79-7.1,2-14.39,1-21.56.84A30.25,30.25,0,0,1,427.36,315c-3.38-1.49-7-2.85-9.83-5.12-4.36-3.51-7.57-8-6.51-14.2.55-3.2,1.76-6.1,5-7.63.39,1.89.77,3.79,1.21,5.67C417.25,293.84,417.73,293.89,418,294Z" transform="translate(-1 -1)"/><path class="cls-5" d="M482,246a34.94,34.94,0,0,0,.16-4.66c-.47-4.43-.06-8.95-.21-13.42-.06-1.67,1-2.18,1.92-3.38,4.09,3.34,7.92,6.44,11.73,9.57,2.36,1.94,4.42,4.48,7.09,5.74s3.67,4.66,6.81,5.16c3,3.42,7,5.62,10.42,8.46A6.87,6.87,0,0,1,521,255c-.83,0-1.88.33-2.46-.05-3.92-2.58-8.46-3.69-12.65-5.6-4.39-2-9.14-2.81-13.69-4.28-2.07-.67-4.21-1.57-6.56-1.12-.38.07-.9-.52-1.38-.83C483.68,244.37,484.74,246.74,482,246Z" transform="translate(-1 -1)"/><path class="cls-11" d="M482,246c2.74.74,1.68-1.63,2.27-2.88.48.31,1,.9,1.38.83,2.34-.45,4.49.45,6.56,1.12,4.55,1.46,9.29,2.28,13.69,4.28,4.2,1.91,8.73,3,12.65,5.6.58.38,1.63.05,2.46.05,2.36,1.67,4.7,3.36,7.08,5,1.47,1,3.15,1.8,2.92,4-.43.33-1,1-1.26.94a19.83,19.83,0,0,1-4.52-2.28c-3.24-2.49-7.19-3.55-10.71-5.46a41.45,41.45,0,0,0-11.22-4.06c-2.91-.61-5.47-2.57-8.6-2.14-2.33-2.12-5.67-1.33-8.28-2.89-1.1-.66-2.92-.11-4.41-.11Z" transform="translate(-1 -1)"/><path class="cls-10" d="M482,163c-4.48,1.63-9.33,2.41-12.82,6.23-1.31,1.44-3.79,1.67-4.27,4.13-.07.34-1.34.55-2.06.59-.37,0-.85-.41-1.14-.76-2.73-3.34-6.46-5.48-9.71-8.19,2.16-.33,4.32-.79,6.5-1s4.58.63,6.34-.19c2.83-1.3,5.85-.43,8.67-1.73,2.6-1.2,5.64-1.45,8.49-2.11Z" transform="translate(-1 -1)"/><path class="cls-3" d="M470,3l-.67.83L469,3Z" transform="translate(-1 -1)"/><path class="cls-9" d="M425.12,22c3.37-.86,7.4.42,10.77,2.19,3.76,2,7.66,4,10.29,8,1.91,2.91,3.29,6,5,8.91,1.26,2.13-.38,4.69,1.75,6.29-.25,2,.1,4-.65,6.14-.83,2.4-.82,5.21-2,7.67-4,8.35-9.21,12.57-18.15,15.77a23.25,23.25,0,0,1-13,.76,27.65,27.65,0,0,1-10.9-4.93,45.94,45.94,0,0,1-8.11-9c-.88-1.18-.85-2.35-1.33-3.47-2.94-6.84-1.93-13.81-.76-20.78a7.91,7.91,0,0,1,1.33-2.43c2.89-4.78,6.14-9.2,11.5-11.53.85-.37,1.59-1,2.42-1.39C417.65,22,417.65,22,425.12,22ZM401,49.87c-.34,6.22,1.89,11.13,5.91,15.7a23.87,23.87,0,0,0,18,8.39c5.38.18,12.85-3.13,16.9-7.32,4.29-4.44,7.11-9.86,7-16s-1.83-12-6.37-16.77a24.34,24.34,0,0,0-17.19-8c-7.21-.32-13.09,2.5-17.89,7.34A20.79,20.79,0,0,0,401,49.87Z" transform="translate(-1 -1)"/><path class="cls-12" d="M481,456c-1.67,1.48-3.87,1.53-5.86,1.94-2.9.61-5.91.66-8.63,2a.84.84,0,0,1-.49,0c-4.1-.73-8,1.13-12,1.05-8-.16-15.95-.3-23.9,0-4.77.21-9.3-1.48-14-1.09-1.84-1.4-4-.74-6-1.06-1.8-.28-3.49-1.2-5.27-1.67-2-.52-4-.82-5.94-1.3-.32-.08-.53-.63-.8-1V381.65c0-1.16-.49-2.75.09-3.42,1.95-2.25,0-4.18-.09-6.23,2.17.45,4.44.7,6.51,1.23a62.34,62.34,0,0,0,8.24,1.67c2.86.32,5.58,1.75,8.57,1.12.64-.14,1.55-.3,2,0,2.38,1.89,5.09.58,7.61.95a48.64,48.64,0,0,0,7.57,1c13.85-.21,27.73.89,41.54-.95v70.42a40.1,40.1,0,0,0,0,4.49A33.24,33.24,0,0,0,481,456Z" transform="translate(-1 -1)"/><path class="cls-12" d="M516,479c4-.86,7.27-3.47,11-5,.7,2.18-1,4-1,6,0,9.24,0,18.47,0,27.71,0,.43.62.85,1,1.27-.36,1.18-1.19,1.58-2.34,2.08-4.1,1.77-8,4.14-12.1,5.76s-8,3.88-12.19,5.56c-6.54,2.64-12.66,6.33-19.24,9-4.41,1.81-8.4,4.52-13,6.09-1.38.47-3.42.63-4.16,2.49a8.73,8.73,0,0,0-1.84.37c-4.8,2.09-9.43,4.71-14.41,6.17-3.59,1.05-6.64,3.24-10.45,3.85-2.94.47-5.63,2.4-8.46,3.59a30.48,30.48,0,0,1-5.23,1.82c-.74.16-1.66-.59-2.52-.78a6.29,6.29,0,0,0-2,0c-2.45.28-3.55.19-5-.41a7.34,7.34,0,0,0-1.75-.58c-2.69-.37-5.39-.67-8.07-1a3.23,3.23,0,0,1-1.28-.52c-3.93-2.57-7.74-5.37-11.81-7.7-3.56-2-6.34-5.2-10.17-6.77a2.46,2.46,0,0,0-3-2,9.3,9.3,0,0,0-3.37-3.13,98.12,98.12,0,0,1-10.88-8.71c-2.62-2.34-6.12-3.75-7.74-7.16a13.28,13.28,0,0,0,2-7.63c-.13-9.12,0-18.25,0-27.37,4.57,3.4,9.06,6.91,13.73,10.15,2.14,1.48,4.35,3.19,7.27,2.85-.45,1.88,1.06,2.71,2.14,3.56a46,46,0,0,0,5.49,3.55c3.48,2,6.92,4.1,10.53,5.83a58.74,58.74,0,0,0,8.24,2.94,157.65,157.65,0,0,0,15.75,4c5.47,1.08,10.94-1,16.45-1,1.46-2.1,4.28.31,5.75-1.75,4.32-1.2,8.22-3.5,12.37-5,8.7-3.15,16.88-7.36,25.28-11.14.89-.67,1.72-1.8,2.67-1.91,2.63-.3,4.49-2.09,6.77-2.94,4.9-1.84,9.11-5.15,14.28-6.45a14.09,14.09,0,0,0,5.75-2.83C512.15,480.38,514.65,480.86,516,479Z" transform="translate(-1 -1)"/><path class="cls-2" d="M481,456a33.24,33.24,0,0,1-1-4.09,40.1,40.1,0,0,1,0-4.49V377h2a2.48,2.48,0,0,0,4,0c.86-.33,1.7-.7,2.57-1,5.13-1.77,10.54-2.41,15.78-3.83a80.55,80.55,0,0,0,21.42-9.5c3.85-2.38,7.5-5.11,11.23-7.68,2.06.56,2,2.16,2,3.84,0,4.14,0,8.28,0,12.41v25.33c0,4.14.27,8.3-.08,12.41s1.08,8,1.08,12a109.33,109.33,0,0,1-11.8,11.57c-4.84,4.2-10.28,7.43-15.48,11a64.86,64.86,0,0,1-14.39,7.29c-4.32,1.58-8.63,3.3-13.08,4.59C483.76,455.89,482.39,455.7,481,456Z" transform="translate(-1 -1)"/><path class="cls-2" d="M527,509c-.33-.42-1-.85-1-1.27-.06-9.24,0-18.47,0-27.71,0-2.06,1.7-3.84,1-6,3-.1,5.12-2.15,7.64-3.26,7.19-3.17,14.12-6.91,21.3-10.09,4.66-2.06,9.08-4.66,13.78-6.52,5.47-2.17,10.6-5,15.94-7.34,8.58-3.81,17.06-7.86,25.59-11.78q9.86-4.53,19.76-9a2.63,2.63,0,0,1,1,0,28.59,28.59,0,0,0-1,5c-.1,8.27,0,16.55-.07,24.82,0,1.68.44,2.8,2.23,3.17.32.06.53.63.79,1-.74,1.86-2.77,2-4.15,2.49-5.28,1.85-10,4.79-15,7.14A7.74,7.74,0,0,1,613,470a24.88,24.88,0,0,1-3.17,2c-3,1.29-6,2.27-8.94,3.68-6.77,3.31-13.57,6.52-20.49,9.48-1.7.73-3.12,2.3-4.85,2.69-4,.9-7.34,3.2-10.89,5s-7.75,3-11.32,5.15c-1.6,1-3.07,2.46-4.79,2.83-5.87,1.27-10.85,4.35-16,7.12A9.83,9.83,0,0,1,527,509Z" transform="translate(-1 -1)"/><path class="cls-11" d="M379,495c-2.92.34-5.13-1.37-7.27-2.85-4.68-3.24-9.17-6.75-13.73-10.15-1.63.32-.47-2.46-2.53-2.18-.78.11-1.8-1.72-2.76-2.6s-1.8-1.49-2.71-2.23a4.14,4.14,0,0,1,3.87-2c.83,0,1.66,0,2.49,0H513.48a12.2,12.2,0,0,1,3,.05,16.73,16.73,0,0,1,3.12,1.61c-1.37,1.72-4.17,1.8-3.58,4.34-1.35,1.86-3.85,1.38-5.54,2.86a14.09,14.09,0,0,1-5.75,2.83c-5.17,1.3-9.37,4.61-14.28,6.45-2.28.86-4.15,2.65-6.77,2.94-.95.11-1.78,1.24-2.67,1.91v-2H382.79a24.38,24.38,0,0,0-3,0C379.5,494.08,379.26,494.67,379,495Z" transform="translate(-1 -1)"/><path class="cls-10" d="M634,460c-.26-.33-.47-.9-.79-1-1.79-.37-2.24-1.48-2.23-3.17,0-8.27,0-16.55.07-24.82a28.59,28.59,0,0,1,1-5c2.6-2.44,6-3.56,9.14-4.87,1.57-.65,3.08-1.38,4.6-2.13,6.33-3.14,13-5.61,19.19-9,5.22-2.82,10.2-6,14-10.57,1.77-2.14,3.35-4.58,3.08-7.68-.06-.71-.4-1.77,1-1.78,2.21,3.65,2.84,7.82,4,11.82,1.79,6.12.67,12.38,1,18.57-2,3.48-.12,7.62-2,11.18-.84,1.63-1.3,3.23-3,4.5-6.78,5.1-14.67,8-22.09,11.87-5.74,3-11.7,5.49-17.59,8.16-1.54.7-3.27,1-4.73,1.83S635.87,460,634,460Z" transform="translate(-1 -1)"/><path class="cls-11" d="M398,291c-.32,1.39.45,2.81-.6,4.28-.57.8-.33,2.49.06,3.61C401.3,310.15,409,317.38,420.32,321c4.51,1.46,9.16,2,13.75,3,9.17,2,18.4.61,27.59.83a20,20,0,0,0,8.63-2c9-4.19,17.79-8.8,23.95-16.84,2.19-2.87,4.37-6.24,3.8-10.41a34.74,34.74,0,0,1,0-4.49c0-1.44.11-2.85-1-4.11-1.23-1.44-1.08-3.29-1-5.06,2.73,0,3.88,2.12,5,4.06,3.11,5.54,5.21,11.37,5.06,17.89s-2.9,11.73-6.71,16.2a51.77,51.77,0,0,1-19.25,13.79c-6.16,2.67-12.35,5.56-19.38,5.06-3.41,1.51-7,.92-10.57,1-2.5.05-5.3.73-7.41-.18-2.32-1-4.54-.23-6.64-.87s-4.55-1.28-6.73-1.72c-3.53-.72-7.07-1.61-10.63-2.11a26.48,26.48,0,0,1-12.63-5.66c-7.21-5.6-11.9-13.17-14.84-21.76-1.08-3.16-.31-6.54,1.09-9.32S394.9,292.5,398,291Z" transform="translate(-1 -1)"/><path class="cls-11" d="M347,277c0,.83.32,1.85-.05,2.47-2.64,4.44-3.11,9.4-4.15,14.32a57.93,57.93,0,0,0-.58,17.1c.41,4.74.64,9.72,2.72,14.29,1.81,4,3.05,8.18,6.15,11.46,1.2,1.27,2,2.87,3.22,4.14A61,61,0,0,0,372,353.52c5.11,2.53,10.13,5.26,15.71,6.73,1.79.47,3.52,1.16,5.27,1.75a13.35,13.35,0,0,1-1.78,2c-2,1.48-4.41,2.27-6.22,4h-2a7.35,7.35,0,0,0-1.27-1c-3.57-1.69-7.15-3.35-10.73-5-2.38-2.47-5.41-3.82-8.86-5.31v77.73c-2.92,2.2-3.65-1.8-5.74-1.52-2.47-2.47-5-4.92-7.37-7.44-.25-.26,0-1,0-1.46q0-37.67,0-75.33a8.27,8.27,0,0,0-1.48-4.91c-2-3.09-4.77-5.84-5.78-9.54-.78-2.83-3-5.19-2.73-8.35-1.6-.81-.11-3.21-2-3.87a11.44,11.44,0,0,1-1-3.07,157.94,157.94,0,0,1,.08-16.41A35,35,0,0,1,339,291.3c1.44-3.22,2.49-6.62,4.1-9.74C344,279.83,344.68,277.63,347,277Z" transform="translate(-1 -1)"/><path class="cls-7" d="M385,368c1.81-1.75,4.24-2.54,6.22-4a13.35,13.35,0,0,0,1.78-2h1l1,1c3.8.17,7.27,1.81,11,2.5,5.22,1,10.29,2.55,15.5,3.62a105.36,105.36,0,0,0,22.68,1.9c7.83-.09,15.65,0,23.48,0,2.39,0,4.58-1.31,7.09-1a16.86,16.86,0,0,0,6.62-.79c2.37-.7,5-.47,7.56-1,5.49-1.18,11-2.12,16.11-4.6,5.55-2.68,11.31-4.94,16.71-7.87,4.7-2.54,9.36-5.28,13.25-9.08,1.12-1.1,2.64-1.79,3.78-2.87,5.37-5.08,8.88-11.42,12-18,.67-1.41-.4-3.32,1.23-4.48.21-4.2,1.73-8.35,1-12.57-1.1-6-1.54-12.11-4.4-17.65a76.91,76.91,0,0,1-3.16-7.18A11.82,11.82,0,0,1,545,281c.52.35,1.25.58,1.52,1.07,3.45,6.16,7.19,12.18,9.13,19.07A34.38,34.38,0,0,1,557,313v5c-.11,1.94.14,4-.41,5.81A113.1,113.1,0,0,1,552.44,335c-2,4.84-5.35,8.87-8.77,12.78-2.15,2.46-4.44,4.8-6.67,7.2-3.74,2.57-7.38,5.3-11.23,7.68a80.55,80.55,0,0,1-21.42,9.5c-5.24,1.42-10.65,2.06-15.78,3.83-.87.3-1.71.66-2.57,1h-6c-13.81,1.84-27.69.73-41.54.95a48.64,48.64,0,0,1-7.57-1c-2.52-.36-5.23.95-7.61-.95-.41-.32-1.32-.16-2,0-3,.63-5.71-.79-8.57-1.12a62.34,62.34,0,0,1-8.24-1.67c-2.08-.53-4.34-.77-6.51-1.23-1.39-.3-2.74.26-4.25-.6a17.83,17.83,0,0,0-8.4-2.58C385.23,368.81,385.12,368.28,385,368Z" transform="translate(-1 -1)"/><path class="cls-8" d="M84,377c.83,0,2.07-.35,2.43.06,2.27,2.63,5.77,3.12,8.44,5.11,2.4,1.79,5.48,2.75,8.36,3.8,4.62,1.7,9.35,3.11,14,4.78,1.79.65,3.63.12,5.56,1.06,2.3,1.12,5.37.55,8,1.25,4.5,1.23,9,.71,13.56,1,1.85.12,3.59,1.25,5.57.95a73.62,73.62,0,0,1,14-1.08c1,0,2-.82,2.71-1.16-.21-4.09-.49-8.09-.58-12.08-.07-3.14.35-3.15,3.64-3.75a115.27,115.27,0,0,0,11.73-3c4.72-1.39,9.55-2.51,13.89-5,5.38-3.05,10.78-6.06,15-10.75A59.67,59.67,0,0,1,215,354v4c-.67.61-1.66,1.11-1.95,1.86-1.47,3.9-3.4,7.68-3.09,12.08.23,3.34-.26,6.71,1,10,.66,1.7,2.23,3.05,2,5.09a8.57,8.57,0,0,0-3.24.62,85.15,85.15,0,0,1-16.64,6.76c-3.29.9-6.56,1.89-9.9,2.58-4.82,1-9.74,1.53-14.59,2.27a101.06,101.06,0,0,1-12.09.74c-4,.14-8,.13-12,0-1.7-.06-3.37-.76-5.08-.92s-3.65,0-5.48,0c-.26-.33-.52-1-.79-1-5.75,0-11-2.2-16.41-3.63-3.31-.87-6.33-2.52-9.57-3.3-3.41-.82-6.29-2.6-9.21-4.21C93,384.14,87.78,381.56,84,377Z" transform="translate(-1 -1)"/><path class="cls-10" d="M537,355c2.23-2.39,4.52-4.74,6.67-7.2,3.42-3.91,6.72-7.95,8.77-12.78a113.1,113.1,0,0,0,4.15-11.21c.55-1.81.3-3.87.41-5.81h1.77a6.79,6.79,0,0,1,.21,1.77c-.27,1.86-.64,3.71-1,5.56,2,1.19,0,3.86,1.93,5.23.39.28.07,1.58.07,2.41,0,10,.69,20-.21,29.86-.77,8.36-.19,16.7-.94,25a28.34,28.34,0,0,1-2.68,9.81,82.74,82.74,0,0,1-13.24,19.88c-1,1.13-.91,3.22-2.93,3.49,0-4-1.43-7.89-1.08-12s.08-8.27.08-12.41V371.26c0-4.14,0-8.28,0-12.41C539,357.16,539.06,355.56,537,355Z" transform="translate(-1 -1)"/><path class="cls-2" d="M385,368c.12.28.23.81.35.82a17.83,17.83,0,0,1,8.4,2.58c1.51.86,2.86.3,4.25.6.12,2.05,2,4,.09,6.23-.58.67-.09,2.25-.09,3.42V455c-3,.43-5.54-1.19-8-2.2-2.68-1.11-6-1.28-8-3.8,1.33-1.5,1-3.33,1-5.08q0-38,0-75.92Z" transform="translate(-1 -1)"/><path class="cls-4" d="M337,322c1.89.65.4,3.06,2,3.87-.26,3.16,2,5.52,2.73,8.35,1,3.7,3.76,6.45,5.78,9.54a8.27,8.27,0,0,1,1.48,4.91q0,37.67,0,75.33c-4.35-2.55-6.17-7.17-9-11a20.84,20.84,0,0,1-1.38-1.93c-1.51-2.6-3-5.15-2.66-8.41.51-5.39-1.43-10.62-1.06-16.08.26-3.88,1.56-7.59,1.18-11.58s-.08-8-.08-12V339.57c0-4-.1-8,0-12A40.87,40.87,0,0,1,337,322Z" transform="translate(-1 -1)"/><path class="cls-2" d="M350,475c.91.74,1.84,1.44,2.71,2.23s2,2.71,2.76,2.6c2.06-.28.91,2.49,2.53,2.18,0,9.12-.08,18.25,0,27.37a13.28,13.28,0,0,1-2,7.63,9.39,9.39,0,0,1-1.43,0c-.25-1.89-2.11-2.1-3.2-3.06-4.59-4.06-9.12-8.22-14-11.9a94.35,94.35,0,0,1-7.63-6.76c-.86-.81-1.83-1.51-2.75-2.26,2-2.65,2-2.65,2-6.14q0-13.93,0-27.86c3.54,1.22,5.74,4.29,8.71,6.32C342,468.26,345.47,472.32,350,475Z" transform="translate(-1 -1)"/><path class="cls-10" d="M383,368q0,38,0,75.92c0,1.75.33,3.58-1,5.08-3.79-.77-6.76-3.08-9.78-5.27a3.22,3.22,0,0,1-1.25-3c.07-4,0-8,0-12V362c3.58,1.67,7.16,3.32,10.73,5A7.35,7.35,0,0,1,383,368Z" transform="translate(-1 -1)"/><path class="cls-4" d="M258,431a12,12,0,0,1-1.54-1.05c-5.59-5.23-11-10.71-16.84-15.6-2.24-1.87-4.29-4.12-7.08-5.46-1.47-.71-2.38-2.55-3.55-3.88,1.9-1.11,2-2.93,2-4.85q0-10.19,0-20.39c0-.93.11-1.86.16-2.76H234c3.95,3.38,7.93,6.73,11.87,10.12,4.73,4.07,9.17,8.48,14.07,12.35A6.4,6.4,0,0,1,261,401a13,13,0,0,0-2,7.6c.16,6.11,0,12.23.06,18.35A5.84,5.84,0,0,1,258,431Z" transform="translate(-1 -1)"/><path class="cls-11" d="M258,431a5.84,5.84,0,0,0,1-4c0-6.12.09-12.24-.06-18.35a13,13,0,0,1,2-7.6,13.55,13.55,0,0,1,5,3.5,103.79,103.79,0,0,0,12.84,11c2.63,2,4.74,4.62,7.14,7,0,8.41.07,16.87-.05,25.32a39.14,39.14,0,0,1-1.1,6.21,8,8,0,0,1-4.93-2.6c-5.69-5.4-11.43-10.74-17.1-16.14C261.26,433.81,259.17,432.92,258,431Z" transform="translate(-1 -1)"/><path class="cls-10" d="M329,459q0,13.93,0,27.86c0,3.49,0,3.49-2,6.14a13.53,13.53,0,0,1-1.55-1.07c-4-3.64-7.76-7.57-12-10.85-3-2.31-5.62-5-8.41-7.56V444.61a10.1,10.1,0,0,1,0-1.5,2.45,2.45,0,0,1,4-1.56c2.49,2.07,4.8,4.38,7.4,6.31,3.21,2.39,5.87,5.43,9.35,7.53C327.1,456.19,327.94,457.77,329,459Z" transform="translate(-1 -1)"/><path class="cls-11" d="M378,536a2.46,2.46,0,0,1,3,2c-.89.67-1.69,1.69-2.68,1.93a44.91,44.91,0,0,1-7.06,1c-5.35.42-10.68-.09-16.1.82-5.72,1-11.69.06-17.54,1.12-4.28.78-8.68-.27-13.1.91-3.26.87-7,.29-10.44.14s-6.61,1.8-10.07,1c-.5,0-1.24.21-1.45,0-3.27-3.83-8-5.86-11.49-9.43A10.74,10.74,0,0,1,290,534v-2.49c4.33-1.57,8.81-1.61,13.34-1.54,2.21,0,4.57.66,6.57-1,2.05,1.79,4.71.44,6.93,1.34.43.17.86.68,1.22.62,4-.69,7.72.75,11.55,1.19,4,.47,8.29.11,12.16,1.84.14.06.33,0,.5,0,4.35.33,8.72.49,13,1a141,141,0,0,0,14.55,1.1c1.59,0,3.3,1.09,5.07.82A19.78,19.78,0,0,0,378,536Z" transform="translate(-1 -1)"/><path class="cls-7" d="M234,377h-2.83c-.06.91-.16,1.83-.16,2.76q0,10.19,0,20.39c0,1.91-.11,3.74-2,4.85-5.31-4.74-10.91-9.21-14.26-15.73A15.65,15.65,0,0,0,213,387c.19-2-1.38-3.38-2-5.09-1.26-3.26-.76-6.64-1-10-.31-4.4,1.61-8.18,3.09-12.08.29-.76,1.28-1.25,1.95-1.86.23.73.23,1.68.71,2.14q7.54,7.21,15.24,14.27C231.93,375.31,233.71,375.27,234,377Z" transform="translate(-1 -1)"/><path class="cls-8" d="M293,240c.28.12.81.22.81.35.37,5.81,3.5,10.52,6.4,15.21a38.61,38.61,0,0,0,7,8c7.08,6.44,15.4,11,24,15,1.09.51,2.53.28,3.81.39-1,.67-1.87,1.39-2.87,2-1.6,1-3.25,1.82-5.33,3-5.47-3.51-12-6.41-17-11.61-3.39-3.53-7.17-6.71-9.82-10.87a47.83,47.83,0,0,1-6-12.93,27.19,27.19,0,0,1-1-4.07A39.82,39.82,0,0,1,293,240Z" transform="translate(-1 -1)"/><path class="cls-4" d="M209,238l3-2.19c2.36,2.61,4.16,5.44,6.7,7.22,3.51,2.46,6.23,5.63,9.27,8.51,1.45,1.37,2.67,3,4,4.46a4.59,4.59,0,0,1-4,2c-.23-.73-.24-1.7-.73-2.15-3.1-2.84-5.58-6.32-9.32-8.53-1.79-1.06-3.12-2.93-4.59-4.49S210.45,239.62,209,238Z" transform="translate(-1 -1)"/><path class="cls-11" d="M209,238c1.45,1.62,2.86,3.26,4.36,4.84s2.8,3.43,4.59,4.49c3.75,2.21,6.22,5.69,9.32,8.53.49.45.5,1.42.73,2.15-.17,1.66-1.46.87-2.27.95-.34,0-.76-.51-1.11-.83-4.53-4.19-9-8.47-13.62-12.54-1.91-1.68-2.24-4.71-5-5.57A2.46,2.46,0,0,1,209,238Z" transform="translate(-1 -1)"/><path class="cls-10" d="M416,199v-8c1.94.34.95,1.86,1,2.77.07,13.24,0,26.48,0,39.72V242a5.42,5.42,0,0,1-1-.51c-.08-.07,0-.32,0-.48Z" transform="translate(-1 -1)"/><path class="cls-10" d="M557,316v-3c1.33-.18,2.13.06,2,1.75S557.88,315.92,557,316Z" transform="translate(-1 -1)"/><path class="cls-11" d="M347,275l2-2c.08,1.71.21,3.44-2,4Z" transform="translate(-1 -1)"/><path class="cls-10" d="M416,189v-3C417.37,187,417.37,188,416,189Z" transform="translate(-1 -1)"/><path class="cls-4" d="M544,280c-1.4-.25-1.17-1-.5-2.1L545,280Z" transform="translate(-1 -1)"/><path class="cls-11" d="M532.64,266.14l.36.36a3.13,3.13,0,0,1-.67.31c-.08,0-.22-.2-.33-.31Z" transform="translate(-1 -1)"/><path class="cls-11" d="M349,273l1-1Z" transform="translate(-1 -1)"/><path class="cls-7" d="M544,280h1v1Z" transform="translate(-1 -1)"/><path class="cls-11" d="M496,282l-1-1Z" transform="translate(-1 -1)"/><path class="cls-11" d="M395,363l-1-1Z" transform="translate(-1 -1)"/><path class="cls-6" d="M309,239l-1-1Z" transform="translate(-1 -1)"/><path class="cls-6" d="M310,240l-1-1Z" transform="translate(-1 -1)"/><path class="cls-7" d="M525,554c-.27,2-2.26,2.25-3.51,2.89-15.25,7.77-30.47,15.63-46,22.92-7.93,3.73-15.9,7.43-23.95,10.91-4.36,1.88-8.76,3.78-13.23,5.44-2.9,1.08-5.89,1.94-8.76,3s-5.79,2.07-8.75,3a57.31,57.31,0,0,1-15.29,2.89c-5.88.23-11.14-1.82-16.55-3.53a64.56,64.56,0,0,1-11.29-5.32c-3.67-2-7.45-3.75-11.09-5.85Q354,583.11,342.05,575c-3.78-2.55-7.55-5.11-11.26-7.76A10.44,10.44,0,0,1,329,565c1.49.18,2.84-.86,4.08-.87a119.85,119.85,0,0,0,12.57-1.07c5.32-.6,10.67.1,16.09-.86,5.87-1,12,0,18-1.07,4.91-.9,10,0,15.07-.94s10.33-.06,15.55-1c5.07-1,10.32,0,15.57-1s11-.28,16.55-1c7.93-1.06,16,.3,24-1,7.06-1.15,14.36.61,21.55-1,3.39-.78,7-.24,10.58-.94,4.06-.79,8.34-.3,12.56-1,4-.69,8.29-.18,12.45-.11C524.15,553.05,524.57,553.67,525,554Z" transform="translate(-1 -1)"/><path class="cls-11" d="M527,509a9.83,9.83,0,0,0,5.55-1c5.15-2.77,10.14-5.85,16-7.12,1.72-.37,3.19-1.87,4.79-2.83,3.57-2.15,7.63-3.26,11.32-5.15s6.86-4.12,10.89-5c1.73-.39,3.15-2,4.85-2.69,6.92-3,13.73-6.18,20.49-9.48,2.89-1.41,6-2.39,8.94-3.68a24.88,24.88,0,0,0,3.17-2v2.68l2.84.54v33.64a48.75,48.75,0,0,0-3.6,3.48c-.54.62-.51,1.57.76,1.66-.09,1.5-1.24.85-2,1-1.09,0-1.85-2-3.33-.31-.72.83-2.27.88-3.29,1.52-.36.23-.27,1.17-.39,1.78-3.09,2.83-7.21,3.84-10.72,5.94a77.69,77.69,0,0,1-11.56,5.77c-11.08,4.3-21.21,10.55-32,15.34a21.46,21.46,0,0,1-5.67,2c.15-.71-.37-1.51.77-2a16.36,16.36,0,0,0,6.59-5.07c-5.14.43-9.58-.17-14.14.95-3.45.85-7.28,0-10.93.2s-7,.88-10.56.92c-11.64.12-23.28,0-34.92.08-1.39,0-2.76-.35-4.21.72-1.74,1.28-3.58-.63-5.44-.76-2-.14-3.78,2-5.95.72-.4-.24-.8-.47-1.2-.71.75-1.86,2.78-2,4.16-2.49,4.57-1.57,8.56-4.28,13-6.09,6.58-2.7,12.7-6.39,19.24-9,4.16-1.68,8-3.94,12.19-5.56s8-4,12.1-5.76C525.81,510.58,526.64,510.18,527,509Z" transform="translate(-1 -1)"/><path class="cls-4" d="M464,540c.4.23.81.46,1.2.71,2.17,1.33,3.91-.86,5.95-.72,1.86.13,3.7,2,5.44.76,1.45-1.07,2.82-.71,4.21-.72,11.64-.06,23.28,0,34.92-.08,3.52,0,7-.76,10.56-.92s7.48.64,10.93-.2c4.57-1.12,9-.51,14.14-.95a16.36,16.36,0,0,1-6.59,5.07c-1.14.54-.62,1.33-.77,2-4.1,3.07-8.84,4.93-13.47,7-1.79.79-3.68,1.35-5.53,2-.43-.33-.85-.95-1.29-1-4.16-.07-8.41-.59-12.45.11-4.22.72-8.49.23-12.56,1-3.57.7-7.18.16-10.58.94-7.19,1.65-14.49-.12-21.55,1-8.05,1.32-16.12,0-24,1-5.56.74-11.17,0-16.55,1s-10.5,0-15.57,1c-5.22,1-10.51.05-15.55,1s-10.16,0-15.07.94c-6,1.11-12.17,0-18,1.07-5.42,1-10.76.26-16.09.86a119.85,119.85,0,0,1-12.57,1.07c-1.24,0-2.59,1.06-4.08.87a6.94,6.94,0,0,1-2.17-.72c-2.14-1.67-4.13-3.54-6.29-5.19-2-1.51-4.18-2.72-6.15-4.24-2.28-1.76-4.39-3.73-6.62-5.56-1.09-.89-2.36-1.56-3.39-2.5-.37-.34-.27-1.18-.38-1.8,3.47.77,6.65-1.18,10.07-1s7.18.73,10.44-.14c4.42-1.18,8.82-.14,13.1-.91,5.85-1.06,11.83-.16,17.54-1.12,5.42-.91,10.75-.41,16.1-.82a44.91,44.91,0,0,0,7.06-1c1-.24,1.8-1.26,2.68-1.93,3.84,1.57,6.61,4.74,10.17,6.77,4.07,2.33,7.88,5.12,11.81,7.7a3.23,3.23,0,0,0,1.28.52c2.69.37,5.39.66,8.07,1a7.34,7.34,0,0,1,1.75.58c1.46.6,2.55.69,5,.41a6.29,6.29,0,0,1,2,0c.87.19,1.78.94,2.52.78a30.48,30.48,0,0,0,5.23-1.82c2.84-1.2,5.53-3.12,8.46-3.59,3.81-.61,6.87-2.8,10.45-3.85,5-1.46,9.61-4.08,14.41-6.17A8.73,8.73,0,0,1,464,540Z" transform="translate(-1 -1)"/><path class="cls-4" d="M604,516c.12-.62,0-1.56.39-1.78,1-.64,2.57-.7,3.29-1.52,1.47-1.69,2.24.29,3.33.31C609.1,515,606.52,515.43,604,516Z" transform="translate(-1 -1)"/><path class="cls-8" d="M82,375l1,1Z" transform="translate(-1 -1)"/><path class="cls-8" d="M83,376l1,1Z" transform="translate(-1 -1)"/><path class="cls-6" d="M142.24,358c-2.91,0-5.12-.27-7.23.07-2.87.46-5.34-1.24-8.09-1.06s-4.86-1.16-7.27-1.72c-6-1.4-11.64-3.55-16.45-7.35-3.31-2.62-7-5.34-9-8.87-3.83-6.61-3.24-13.61,2.06-19.81a33.89,33.89,0,0,1,10.89-8.73c2.61-1.26,5.1-3,8-3.51,2.77-.49,5.2-2.09,8.16-2.13,1.82,0,3.61-1.13,5.59-.9s3.49-1.47,5.6-1.06A29,29,0,0,0,140,303c2,0,4-.14,6,0,2.21.2,4.4-.49,6.66.83,1.65,1,4.22-.66,6,1.13,4.09-.27,7.56,1.76,11.26,3,6.11,2,14.19,7,17.45,12,3.74,5.76,5.48,12.05,1.63,18.66-.15.25,0,.75-.15.92-5,4.94-9.49,10.63-16.85,12.41a8.81,8.81,0,0,0-1.22.68,65.12,65.12,0,0,1-16.18,4.55C150.19,357.93,145.85,357.56,142.24,358Z" transform="translate(-1 -1)"/><path class="cls-1" d="M451,311c-3.81,0-7.63-.12-11.43.06A7.22,7.22,0,0,1,436,310c-.42-.81,1.77-1.17.3-2.35-.52-.42-.29-1.85-.29-2.81q0-57.21-.05-114.41a8.71,8.71,0,0,1,2.92-6.81c.85-.8,1.65-1.64,2.57-2.56,5-.93,6,4.29,9.55,6.13Z" transform="translate(-1 -1)"/><path class="cls-6" d="M401,49.87a20.79,20.79,0,0,1,6.38-16.6c4.8-4.83,10.68-7.66,17.89-7.34a24.34,24.34,0,0,1,17.19,8c4.55,4.74,6.29,10.63,6.37,16.77s-2.73,11.53-7,16c-4,4.19-11.52,7.5-16.9,7.32a23.87,23.87,0,0,1-18-8.39C402.9,61,400.67,56.09,401,49.87Z" transform="translate(-1 -1)"/><path class="cls-4" d="M379,495c.26-.33.5-.92.8-1a24.38,24.38,0,0,1,3,0H481v2c-8.39,3.79-16.58,8-25.28,11.14-4.15,1.5-8,3.8-12.37,5-1.47,2.06-4.29-.35-5.75,1.75-5.51,0-11,2.09-16.45,1a157.65,157.65,0,0,1-15.75-4,58.74,58.74,0,0,1-8.24-2.94c-3.61-1.73-7.06-3.82-10.53-5.83a46,46,0,0,1-5.49-3.55C380.06,497.71,378.55,496.88,379,495Z" transform="translate(-1 -1)"/><path class="cls-12" d="M482,377h4A2.48,2.48,0,0,1,482,377Z" transform="translate(-1 -1)"/></g></g></svg>